<svg width="1440" height="2806" viewBox="0 0 1440 2806" fill="none" xmlns="http://www.w3.org/2000/svg">
<g clip-path="url(#clip0_1_637)">
<rect width="1440" height="2806" fill="#205EA9"/>
<path d="M-1 547H1439V1227H-1V547Z" fill="#FCBF29"/>
<path d="M-5 2131H1635V2724H-5V2131Z" fill="#F6B138"/>
<g clip-path="url(#clip1_1_637)">
<path d="M-15 2433.23L93.0833 2408.76C201.167 2385.2 417.333 2334.88 633.5 2360.04C849.667 2385.2 1065.83 2481.27 1282 2494.3C1498.17 2506.43 1714.33 2433.23 1930.5 2421.11C2146.67 2408.07 2362.83 2458.39 2470.92 2481.95L2579 2506.43V2726.01H2470.92C2362.83 2726.01 2146.67 2726.01 1930.5 2726.01C1714.33 2726.01 1498.17 2726.01 1282 2726.01C1065.83 2726.01 849.667 2726.01 633.5 2726.01C417.333 2726.01 201.167 2726.01 93.0833 2726.01H-15V2433.23Z" fill="#205EA9"/>
<rect x="-57" y="2511" width="1561" height="622" fill="#205EA9"/>
</g>
<rect x="-5" y="1148" width="1441" height="966" fill="#618AC9"/>
<path d="M-461 1015L-362.958 1036.3C-264.917 1058 -68.8333 1100 127.25 1089.7C323.333 1079 519.417 1015 715.5 1015C911.583 1015 1107.67 1079 1303.75 1089.7C1499.83 1100 1695.92 1058 1793.96 1036.3L1892 1015V1175H1793.96C1695.92 1175 1499.83 1175 1303.75 1175C1107.67 1175 911.583 1175 715.5 1175C519.417 1175 323.333 1175 127.25 1175C-68.8333 1175 -264.917 1175 -362.958 1175H-461V1015Z" fill="#618AC9"/>
<path d="M-765 400.333H-627.167C-489.333 400.333 -213.667 400.333 62 414.08C337.667 427.312 613.333 455.576 889 448.253C1164.67 441.444 1440.33 400.333 1716 366.031C1991.67 332.243 2267.33 303.979 2405.17 290.747L2543 277V647H2405.17C2267.33 647 1991.67 647 1716 647C1440.33 647 1164.67 647 889 647C613.333 647 337.667 647 62 647C-213.667 647 -489.333 647 -627.167 647H-765V400.333Z" fill="#FCBF29"/>
<path d="M-7 1829.4L53.2083 1823.16C113.417 1816.44 233.833 1804.66 354.25 1810.55C474.667 1816.44 595.083 1842.36 715.5 1835.64C835.917 1829.4 956.333 1791.7 1076.75 1797.94C1197.17 1804.66 1317.58 1854.14 1377.79 1879.71L1438 1904.8V2131H1377.79C1317.58 2131 1197.17 2131 1076.75 2131C956.333 2131 835.917 2131 715.5 2131C595.083 2131 474.667 2131 354.25 2131C233.833 2131 113.417 2131 53.2083 2131H-7V1829.4Z" fill="#F6B138"/>
</g>
<defs>
<clipPath id="clip0_1_637">
<rect width="1440" height="2806" fill="white"/>
</clipPath>
<clipPath id="clip1_1_637">
<rect width="2594" height="430" fill="white" transform="translate(-15 2296)"/>
</clipPath>
</defs>
</svg>
