<svg width="1440" height="3449" viewBox="0 0 1440 3449" fill="none" xmlns="http://www.w3.org/2000/svg">
<g clip-path="url(#clip0_22_721)">
<rect width="1440" height="3449" fill="#205EA9"/>
<rect x="-5" y="2778" width="1445" height="453" fill="#F6B138"/>
<path d="M-3 3196L57 3185.3C117 3175 237 3153 357 3164C477 3175 597 3217 717 3222.7C837 3228 957 3196 1077 3190.7C1197 3185 1317 3207 1377 3217.3L1437 3228V3324H1377C1317 3324 1197 3324 1077 3324C957 3324 837 3324 717 3324C597 3324 477 3324 357 3324C237 3324 117 3324 57 3324H-3V3196Z" fill="#205EA9"/>
<rect x="-1" y="1735" width="1441" height="854" fill="#618AC9"/>
<path d="M-1 828H1439V1754H-1V828Z" fill="#FCBF29"/>
<path d="M0 1594L60 1615.3C120 1637 240 1679 360 1668.7C480 1658 600 1594 720 1594C840 1594 960 1658 1080 1668.7C1200 1679 1320 1637 1380 1615.3L1440 1594V1754H1380C1320 1754 1200 1754 1080 1754C960 1754 840 1754 720 1754C600 1754 480 1754 360 1754C240 1754 120 1754 60 1754H0V1594Z" fill="#618AC9"/>
<path d="M-20 705H40.8333C101.667 705 223.333 705 345 715.7C466.667 726 588.333 748 710 742.3C831.667 737 953.333 705 1075 678.3C1196.67 652 1318.33 630 1379.17 619.7L1440 609V897H1379.17C1318.33 897 1196.67 897 1075 897C953.333 897 831.667 897 710 897C588.333 897 466.667 897 345 897C223.333 897 101.667 897 40.8333 897H-20V705Z" fill="#FCBF29"/>
<path d="M-5 2522L55.2083 2516.7C115.417 2511 235.833 2501 356.25 2506C476.667 2511 597.083 2533 717.5 2527.3C837.917 2522 958.333 2490 1078.75 2495.3C1199.17 2501 1319.58 2543 1379.79 2564.7L1440 2586V2778H1379.79C1319.58 2778 1199.17 2778 1078.75 2778C958.333 2778 837.917 2778 717.5 2778C597.083 2778 476.667 2778 356.25 2778C235.833 2778 115.417 2778 55.2083 2778H-5V2522Z" fill="#F6B138"/>
</g>
<defs>
<clipPath id="clip0_22_721">
<rect width="1440" height="3449" fill="white"/>
</clipPath>
</defs>
</svg>
