<svg width="1440" height="898" viewBox="0 0 1440 898" fill="none" xmlns="http://www.w3.org/2000/svg">
<g clip-path="url(#clip0_128_1054)">
<rect width="1440" height="898" fill="#205EA9"/>
<path d="M-20 705H40.8333C101.667 705 223.333 705 345 715.7C466.667 726 588.333 748 710 742.3C831.667 737 953.333 705 1075 678.3C1196.67 652 1318.33 630 1379.17 619.7L1440 609V897H1379.17C1318.33 897 1196.67 897 1075 897C953.333 897 831.667 897 710 897C588.333 897 466.667 897 345 897C223.333 897 101.667 897 40.8333 897H-20V705Z" fill="#FCBF29"/>
</g>
<defs>
<clipPath id="clip0_128_1054">
<rect width="1440" height="898" fill="white"/>
</clipPath>
</defs>
</svg>
