<svg width="354" height="207" viewBox="0 0 354 207" fill="none" xmlns="http://www.w3.org/2000/svg">
<path d="M304.196 34.6718C325.468 59.4098 308.248 99.9226 289.255 132.907C270.262 165.89 249.496 190.987 218.854 201.384C188.465 211.602 147.946 206.941 112.493 194.931C77.2921 182.741 46.9032 163.201 24.8713 131.652C2.58609 100.102 -11.5954 56.7209 12.7157 31.4451C37.2801 6.16943 100.337 -0.82172 161.621 0.074582C223.159 0.970884 282.924 9.93391 304.196 34.6718Z" fill="#618AC9"/>
<path d="M31.3636 124H4.5V54.1818H31.0909C38.2727 54.1818 44.4773 55.5795 49.7045 58.375C54.9545 61.1477 59 65.1477 61.8409 70.375C64.7045 75.5795 66.1364 81.8182 66.1364 89.0909C66.1364 96.3636 64.7159 102.614 61.875 107.841C59.0341 113.045 55.0114 117.045 49.8068 119.841C44.6023 122.614 38.4545 124 31.3636 124ZM23.4545 107.909H30.6818C34.1364 107.909 37.0795 107.352 39.5114 106.239C41.9659 105.125 43.8295 103.205 45.1023 100.477C46.3977 97.75 47.0455 93.9545 47.0455 89.0909C47.0455 84.2273 46.3864 80.4318 45.0682 77.7045C43.7727 74.9773 41.8636 73.0568 39.3409 71.9432C36.8409 70.8295 33.7727 70.2727 30.1364 70.2727H23.4545V107.909ZM93.8608 54.1818V124H74.9062V54.1818H93.8608ZM121.798 54.1818V124H102.844V54.1818H121.798ZM148.918 124H128.463L151.509 54.1818H177.418L200.463 124H180.009L164.736 73.4091H164.19L148.918 124ZM145.099 96.4545H183.554V110.636H145.099V96.4545ZM207.188 124V54.1818H237.324C242.506 54.1818 247.04 55.125 250.926 57.0114C254.813 58.8977 257.835 61.6136 259.994 65.1591C262.153 68.7045 263.233 72.9545 263.233 77.9091C263.233 82.9091 262.119 87.125 259.892 90.5568C257.688 93.9886 254.585 96.5795 250.585 98.3295C246.608 100.08 241.96 100.955 236.642 100.955H218.642V86.2273H232.824C235.051 86.2273 236.949 85.9545 238.517 85.4091C240.108 84.8409 241.324 83.9432 242.165 82.7159C243.028 81.4886 243.46 79.8864 243.46 77.9091C243.46 75.9091 243.028 74.2841 242.165 73.0341C241.324 71.7614 240.108 70.8295 238.517 70.2386C236.949 69.625 235.051 69.3182 232.824 69.3182H226.142V124H207.188ZM248.097 91.9545L265.551 124H244.96L227.915 91.9545H248.097ZM269.403 69.4545V54.1818H330.085V69.4545H309.085V124H290.403V69.4545H269.403Z" fill="#FCBF29"/>
</svg>
