<svg width="96" height="139" viewBox="0 0 96 139" fill="none" xmlns="http://www.w3.org/2000/svg">
<path fill-rule="evenodd" clip-rule="evenodd" d="M93.2342 75.9104C92.8124 75.7885 92.2855 75.7571 91.8241 75.7349C90.1931 75.6383 88.5301 76.4208 86.931 76.7735C86.231 76.9476 85.4898 77.1527 84.7407 77.3055C84.0756 77.3963 83.3881 77.4645 82.6969 77.5078C82.1382 77.5246 81.488 77.4816 81.2973 78.0727C80.1742 78.2918 79.1801 78.383 78.1095 78.1967C78.2098 77.8534 78.2669 77.4946 78.1632 77.1249C78.2156 77.0373 78.2868 76.9188 78.3249 76.8389H78.1962C76.3171 76.082 74.2852 75.565 72.3963 74.7808C69.9309 73.8866 66.2998 72.1589 63.4511 70.9791C63.6442 69.9148 63.7158 68.8334 63.6339 67.7821L63.7484 67.689C63.786 67.4825 63.8444 67.2352 63.9503 67.048C64.0847 66.6892 64.0879 66.1994 64.1412 65.7938C64.2525 65.0006 64.3268 63.8062 64.1243 62.8643C64.0358 61.5871 63.1802 60.6024 62.2577 59.8126C61.125 58.6853 59.9909 57.5855 58.8852 56.4146C52.7654 50.1363 52.2814 42.2287 42.7011 39.8254L42.6964 39.7881C42.6209 39.7034 42.5901 39.6361 42.5041 39.7701C42.1878 39.6481 41.7933 39.6583 41.5284 39.4521C41.0582 39.0204 40.7245 38.5221 40.5063 37.9306C40.3383 36.8127 40.4572 35.0897 39.484 34.3744C38.403 33.7228 32.6595 33.2588 32.1642 34.6835C31.8569 34.974 31.7171 35.343 31.621 35.7947C31.301 36.4039 31.0991 37.0793 30.7767 37.6978C30.0914 39.0851 29.6471 38.7777 28.4371 39.0947C28.3058 38.8001 27.9071 38.8595 27.6165 38.9022C24.0976 39.3999 19.8074 40.758 18.3008 44.0864L18.429 44.0699C15.8284 48.987 17.5149 55.2401 17.9801 60.4508C18.3563 65.0826 17.926 69.7364 16.9035 74.0567C15.6485 78.64 15.5765 83.7668 18.0666 87.9154C18.3197 88.3903 18.6278 89.0614 19.1731 88.7635C19.4719 88.9908 19.8075 89.1479 20.2711 89.2846C20.399 89.3779 20.5313 89.5346 20.6651 89.6016C20.6714 89.6107 20.8868 89.4857 20.8981 89.4823C21.3053 90.0671 43.6579 92.0209 45.9776 92.3242C48.0212 92.5722 50.7216 93.2054 52.3871 91.7219C53.7634 91.3261 55.2035 90.2959 56.3034 89.273C56.9708 99.0138 57.3399 118.963 57.9354 119.102C58.1961 119.191 58.5479 119.297 58.8428 119.382C58.8446 120.082 58.8964 120.877 58.8417 121.565C58.7503 122.342 58.5186 123.26 58.4138 124.077C57.9632 124.046 57.8307 124.501 57.7783 124.81C57.3894 127.362 57.4009 129.419 57.4288 132.224C62.002 134.935 67.3618 136.426 72.5076 138.178C73.0005 138.55 74.0685 138.147 74.6376 138.047C76.6135 137.655 78.8586 136.497 78.3598 134.374C77.9947 132.775 76.4615 131.855 75.1708 130.915C73.7588 129.885 72.2702 128.857 70.9717 127.631C69.9299 126.643 69.1519 125.877 68.2831 124.763C67.8977 124.244 67.4868 123.393 66.9684 123.011C67.516 122.357 66.4095 122.97 65.9906 123.007C65.7441 121.84 65.439 120.719 65.0731 119.599L65.4288 119.616C66.5966 118.518 67.2512 113.249 67.3325 111.686C67.9179 101.496 67.904 89.7521 65.5557 81.1706C67.3394 82.276 69.2954 83.1992 71.0693 84.2924C72.1878 84.9519 73.3227 85.8675 74.5765 86.1872C74.6582 86.4233 74.9572 86.515 75.1203 86.2839C75.3447 86.3117 75.6339 86.218 75.6586 86.1151C75.8881 85.6428 76.2207 85.1337 76.1807 84.6205C76.1806 84.6205 75.8727 83.9016 75.8727 83.9016C76.5626 84.1839 77.3127 84.7777 78.0492 84.8322C79.5368 89.831 82.4677 87.0307 85.288 85.0852C86.9901 83.8884 88.852 82.5667 90.6433 81.2906C92.163 80.0739 95.1301 78.9195 93.6756 76.5096" fill="#D08B5B"/>
<path fill-rule="evenodd" clip-rule="evenodd" d="M28.3088 39.5109C28.2373 39.3658 28.1511 39.2256 28.0187 39.1979C26.35 39.3634 24.6972 39.8212 23.1635 40.5285C17.4942 42.1758 16.6767 48.8554 17.3584 53.9171C17.3652 54.0092 17.3976 54.2032 17.4465 54.4955C17.6862 55.9296 18.3215 59.7292 18.2602 65.4674C18.2357 67.7594 17.6897 70.155 17.1465 72.5379C16.6048 74.9142 16.066 77.278 16.0501 79.5142C16.0208 83.625 18.0484 87.3822 18.8368 88.3209C20.3463 90.1183 23.1088 86.2448 26.194 81.9188C29.5074 77.2729 33.1931 72.1049 36.099 72.8782C37.7441 73.316 45.9506 72.582 48.6391 71.8446C48.8201 71.795 48.7933 69.6204 48.7711 67.8244C48.7553 66.5428 48.7419 65.4539 48.808 65.4674C51.4609 66.0061 55.7379 64.1504 57.2555 63.4919C57.5157 63.379 57.6947 63.3013 57.7707 63.2769C59.5488 62.7047 61.4449 62.3458 63.1248 63.1015C63.0862 62.5152 62.8614 61.954 62.5478 61.4581C62.1609 61.3615 61.8729 61.0326 61.5977 60.7184C61.5009 60.6078 61.4056 60.499 61.3082 60.4027C60.8951 59.9561 60.4783 59.5131 60.0614 59.07C59.2806 58.2401 58.4998 57.4102 57.744 56.5569C56.0816 54.7568 54.7403 52.5684 53.3971 50.3771C50.743 46.047 48.0818 41.7055 42.9237 40.3259C42.4101 44.6546 36.9084 45.3453 33.5931 43.8639L33.4673 43.8154L33.3433 43.7668C31.3138 42.9659 29.0628 41.7622 28.3535 39.6047L28.3234 39.541L28.3088 39.5109ZM63.3331 65.4674C63.3845 64.9172 63.2909 64.4249 62.8471 64.1067C62.3159 64.4884 61.7464 64.8054 61.1431 65.0556C61.145 65.1255 61.1111 65.2003 61.0805 65.2552C61.8747 65.3188 62.7018 65.5253 63.2593 66.1083C63.2863 65.895 63.3128 65.6812 63.3331 65.4674Z" fill="#618AC9"/>
<path fill-rule="evenodd" clip-rule="evenodd" d="M67.0334 123.197L67.1084 123.303C69.8452 127.168 72.8731 130.077 76.0864 131.566L76.1944 131.616L76.2044 131.622C77.1206 132.16 77.881 133.014 78.1792 133.891C78.5283 134.918 78.233 135.885 77.2415 136.593L77.2113 136.614L77.2062 136.618C75.9583 137.438 74.4855 137.949 73.0388 138.051L72.9852 138.054L72.915 138.059L72.8552 138.022C72.4714 137.783 72.1024 137.646 71.3139 137.419L70.9817 137.323L70.8445 137.283L70.7764 137.262C70.4887 137.175 70.2957 137.109 70.0937 137.027L70.0295 137L69.8148 136.927C65.9563 135.612 62.1446 134.105 58.3937 132.414L58.1731 132.314L57.8351 132.16L57.8273 132.026C57.6557 129.087 57.6627 126.741 57.9071 124.532L57.9151 124.46L58.3551 124.501C58.2908 125.363 59.1475 126.092 59.9567 125.817L59.9812 125.808L59.9926 125.805L60.0263 125.794C60.2544 125.72 60.444 125.613 60.781 125.382L61.0307 125.21L61.0942 125.167L61.1402 125.137C61.1626 125.122 61.1841 125.108 61.2061 125.094L61.2369 125.074C62.6227 124.201 64.1142 123.613 65.6288 123.363C65.7538 123.34 65.8829 123.32 66.024 123.303L66.18 123.284L66.3404 123.267L66.8382 123.218L67.0334 123.197ZM92.6111 75.8021L92.7102 75.909C93.0385 76.2627 93.2875 76.6092 93.445 76.9668C93.6415 77.4128 93.6831 77.8545 93.5366 78.2816L93.5249 78.3148L93.5222 78.3211C93.2757 78.8902 92.6981 79.3934 91.5923 80.1276L91.4243 80.2381C91.2471 80.3536 90.769 80.6643 90.6245 80.7606L90.5609 80.8033C90.3009 80.9782 90.1053 81.1198 89.9489 81.2486L89.9231 81.27L89.5535 81.5286L88.7929 82.0614L88.2286 82.4573L87.8403 82.7301C86.3563 83.7728 84.9238 84.785 83.5244 85.7799L83.4533 85.8284L83.3973 85.8672L83.317 85.9237L83.2037 86.0046L82.8272 86.2758L82.7519 86.3294L82.6777 86.3818L82.6026 86.4343L82.5266 86.4866L82.4519 86.5374C81.6866 87.0533 81.1226 87.3086 80.5219 87.344C80.0944 87.3692 79.6914 87.263 79.3165 87.0123L79.2898 86.9941L79.2781 86.986L79.2378 86.9496L79.2042 86.9186L79.1712 86.8875L79.1387 86.8563C78.9665 86.689 78.8101 86.5077 78.5643 86.2016L78.3574 85.9423L78.2748 85.8398L78.2138 85.7652L78.1702 85.7125C78.0358 85.5511 77.9336 85.4387 77.8181 85.3256L77.7799 85.2885L77.5188 85.0381L77.8591 84.9177C79.2315 84.432 80.3536 82.8878 80.8146 81.1203L80.8309 81.0567L80.8343 81.047C80.9177 80.811 80.9477 80.5693 80.9559 80.1745L80.9599 79.8735L80.9618 79.7743L80.9636 79.7074L80.9657 79.6417C80.9833 79.1691 81.0351 78.9002 81.1836 78.6021L81.2024 78.5652L81.2086 78.5532L81.2163 78.542C81.2255 78.5285 81.2266 78.5264 81.2227 78.5194L81.1446 78.386L81.2372 78.2666C81.2783 78.2137 81.3234 78.1618 81.376 78.1059L81.399 78.0817L81.4504 78.0282L81.5234 78.0166C83.8195 77.6512 86.1763 77.1126 88.9845 76.3423L89.2671 76.2645L89.4079 76.2264L89.5029 76.201L89.597 76.1762C90.5257 75.9331 91.093 75.8395 91.7416 75.8478L91.7967 75.8488C91.8568 75.8499 91.9078 75.8532 91.9947 75.8611L92.0845 75.8694L92.1258 75.8729L92.1655 75.8758C92.3114 75.8858 92.3891 75.8803 92.4651 75.8546L92.4743 75.8514L92.6111 75.8021Z" fill="white"/>
<path fill-rule="evenodd" clip-rule="evenodd" d="M29.3014 38.7893C30.7381 38.4379 30.9836 34.9715 31.8511 35.4651C32.3525 35.9041 31.5322 36.7321 31.3871 37.2276L31.3234 37.3534C31.0291 37.9304 30.6962 38.5055 30.1162 38.8382C29.7433 39.2333 28.6289 38.8454 28.7927 39.4746C29.365 41.371 32.4018 42.6841 34.1916 43.2746C36.9736 44.3263 41.4739 43.9704 42.1275 40.4449C40.6016 40.1637 39.4735 37.3925 40.4139 36.2388C40.446 37.3595 40.7502 38.5162 41.6243 39.2755L41.6725 39.32C41.8263 39.4613 42.0255 39.6299 42.224 39.5986C42.4176 39.3272 42.7934 39.4816 42.904 39.768C51.592 41.2796 53.5275 50.7109 58.9988 56.2622C60.0917 57.4203 61.2342 58.5292 62.362 59.6521C63.5138 60.5719 64.3289 61.8543 64.3857 63.3599C64.4886 64.1974 64.4377 65.0355 64.3275 65.8743L64.3199 65.9501C64.2688 66.4699 64.2385 67.0282 63.9927 67.4897C63.9503 67.6461 63.9675 67.8437 63.833 67.9541C63.8918 68.9111 63.8359 69.8853 63.675 70.8394L64.0942 71.0277C68.7068 73.0954 73.3727 75.0443 78.1824 76.5943C78.5934 76.5192 78.5599 77.0002 78.3609 77.2189C78.4133 77.4761 78.4191 77.7436 78.3575 77.9979C79.2382 78.1253 80.1328 78.0194 81.0022 77.8578C81.2772 77.2482 82.0079 77.2808 82.5729 77.2637C83.2748 77.2194 83.9755 77.1504 84.6723 77.0524C86.3893 76.6664 88.0754 76.1584 89.7758 75.712C90.9137 75.3898 92.1408 75.405 93.2823 75.7017C93.4762 75.9204 93.6553 76.154 93.8064 76.402C94.8499 78.0304 93.8217 79.5226 92.3652 80.378C90.0283 82.0451 87.6909 83.7101 85.3436 85.3619L85.1731 85.4843C82.3804 87.4961 79.2387 90.0426 77.7472 85.1461C77.2459 85.0869 76.8066 84.7483 76.3396 84.5485C76.4652 85.1361 76.09 85.7296 75.8314 86.2334C75.72 86.5203 75.4156 86.615 75.1344 86.6123C74.8937 86.8499 74.442 86.7564 74.2846 86.4745C73.008 86.1067 71.9532 85.2479 70.8232 84.5807C69.2165 83.5986 67.531 82.7612 65.9011 81.8206C68.6087 93.1032 67.9465 104.856 67.226 116.341L67.2209 116.444C67.1316 118.121 66.7495 118.914 65.3677 119.942C65.6084 120.681 65.8238 121.423 65.988 122.183C66.046 122.36 66.3128 122.194 66.315 122.436C66.8059 122.32 67.8036 122.444 67.4555 123.127C68.4411 123.96 69.1084 125.088 69.9724 126.037C71.494 127.872 73.4831 129.239 75.4333 130.585C79.9166 132.884 80.1735 136.868 74.9281 138.229L74.8755 138.242C74.1532 138.417 73.2832 138.817 72.583 138.48C71.5355 138.277 70.4959 137.866 69.4711 137.553C65.3444 136.179 61.3083 134.569 57.3976 132.72C57.2558 132.653 57.1756 132.499 57.1718 132.346C57.2155 131.077 56.8731 124.123 58.1805 123.973C58.4725 122.552 58.5183 121.086 58.4653 119.636C58.0412 119.501 57.6123 119.372 57.173 119.288C56.7465 119.153 56.0796 119.122 55.794 118.775C55.6913 118.737 55.6161 118.645 55.6315 118.499C55.8624 116.32 56.0375 114.135 56.1653 111.947C56.6028 104.61 56.4543 97.2506 55.956 89.9217C54.9291 90.8154 53.759 91.5979 52.4563 92.0142C51.7373 92.7393 50.5844 92.8948 49.6029 92.9826C48.3407 93.0613 47.1008 92.8075 45.8552 92.6497C43.74 92.3817 41.6396 92.6189 39.5398 92.8817L38.8222 92.9718C33.6815 93.5393 28.1258 93.6566 23.3345 91.4453C22.4324 91.5259 21.3124 90.5447 20.7497 89.889C20.5012 90.0434 20.257 89.7418 20.059 89.583C19.7322 89.4831 19.3614 89.3396 19.0649 89.1301C18.3125 89.3779 17.9066 88.3948 17.6208 87.8602C13.0847 80.0424 18.1364 72.2604 17.7564 63.9701C17.9865 57.4706 15.0408 50.6992 17.8878 44.4656C18.4637 41.8276 21.8321 40.0045 24.3675 39.3341C25.1846 39.1983 28.2776 38.0728 28.6182 39.0193C28.7794 38.8062 29.0546 38.7903 29.3014 38.7893ZM66.9285 123.432C66.5034 123.478 66.0889 123.504 65.6688 123.582C64.1352 123.835 62.6723 124.433 61.3543 125.263C60.9275 125.531 60.5466 125.868 60.0568 126.017C59.0503 126.385 58.0611 125.472 58.1348 124.485C57.8543 126.966 57.9024 129.519 58.048 132.013C61.9849 133.806 66.01 135.404 70.1082 136.792C71.0311 137.181 72.1238 137.306 72.9714 137.832C74.4167 137.741 75.8715 137.23 77.0854 136.431C79.0989 135.025 77.7622 132.795 76.093 131.814C72.4185 130.145 69.2908 126.768 66.9285 123.432ZM58.8779 119.762C58.801 120.498 59.3563 121.644 59.278 123.11C59.2177 123.568 59.0759 124.047 59.1251 124.507C59.3512 126.211 61.1854 124.045 61.9433 123.808C63.0193 123.212 64.1886 122.807 65.3903 122.585C65.383 122.192 65.1243 122.035 65.0904 121.646C65.0416 121.074 65.0441 120.524 65.0184 119.946C63.4554 120.661 60.5357 120.156 58.8779 119.762ZM67.2991 123.321C67.2719 123.339 67.2431 123.355 67.2136 123.368C67.4308 123.633 67.619 123.927 67.8766 124.155L67.7669 123.983C67.6202 123.755 67.4701 123.527 67.2991 123.321ZM18.7563 62.3275C18.6776 62.6496 18.5341 62.9525 18.3193 63.2101C19.4288 72.2641 13.7202 79.812 18.9688 88.2301C19.0351 88.2612 19.0956 88.2999 19.1539 88.3483C19.1848 88.3277 19.2156 88.3059 19.2459 88.284C21.7059 83.903 25.2078 80.1239 27.998 75.9315C28.5336 74.8792 29.4152 73.8199 29.7528 72.6041C24.1455 70.3758 21.9057 67.1245 18.7563 62.3275ZM92.5488 76.0607C92.3111 76.1463 92.0465 76.0756 91.7928 76.0711C90.892 76.0517 90.0117 76.2883 89.1502 76.5273C86.6444 77.2171 84.1253 77.8277 81.5581 78.2362C81.5062 78.2902 81.4566 78.3453 81.4115 78.4034C81.456 78.4792 81.4628 78.574 81.3983 78.6682C81.011 79.4128 81.3241 80.3244 81.0427 81.1214C80.635 82.7349 79.5507 84.5548 77.9325 85.1274C78.4722 85.645 78.8589 86.3111 79.4149 86.8106C80.7812 87.7531 82.2859 86.3484 83.4013 85.5952C85.525 84.0853 87.6543 82.586 89.7894 81.0927C90.7459 80.2948 92.8619 79.2892 93.3197 78.2322C93.6129 77.4217 93.0792 76.6322 92.5488 76.0607ZM77.9131 78.1179C76.999 79.9942 76.4713 81.989 75.9434 84.0035C76.4925 84.1555 76.9982 84.3936 77.5379 84.5537C78.2981 84.7258 79.3713 83.2474 79.7524 82.6605C80.1453 82.0042 80.4204 81.283 80.548 80.5274C80.6557 79.7875 80.541 79.019 80.8608 78.3336C79.8705 78.4355 78.8659 78.4568 77.9131 78.1179ZM23.5681 74.2466C24.4265 74.0046 22.4737 75.959 22.3613 76.1676C21.0915 77.6764 19.9282 79.27 18.7737 80.8685L18.4238 81.3536C18.3901 81.4028 18.1584 81.7475 18.326 81.7037C18.3413 81.6997 18.3485 81.7199 18.3363 81.7284C17.2686 81.9184 23.0533 74.3795 23.5681 74.2466ZM44.4955 73.3241C44.5649 73.1136 44.2353 73.0235 44.1659 73.2329L43.9471 73.8961C43.1213 76.402 42.3006 78.9114 41.3136 81.3588C41.231 81.5641 41.5612 81.6536 41.6431 81.4506C42.7167 78.7872 43.5938 76.0505 44.4955 73.3241ZM54.0945 72.4467C53.7935 73.8844 53.0329 75.1805 52.5718 76.5548C53.4378 76.3627 54.1049 75.5505 54.6097 74.852L54.6249 74.8287C54.863 74.4598 55.1398 73.8835 55.6806 74.1438C56.5016 74.6238 55.9135 76.326 55.8981 77.1328C55.794 78.2388 55.4368 79.2734 55.1933 80.3477C55.8191 79.9173 55.999 79.0685 56.304 78.4071L57.4779 75.5727C58.3409 74.3826 57.9401 77.9464 57.8956 78.2828C57.8254 79.0216 57.5161 79.7648 57.6375 80.5087C58.1242 79.9816 58.4307 79.3193 58.6883 78.6472C59.0457 77.7125 59.3718 76.7657 59.7118 75.8248C59.8294 75.5234 60.2751 75.6292 60.2105 75.9612C60.1886 77.029 60.1711 78.0968 60.1542 79.1647L60.1415 79.9656C60.1392 80.1174 60.0646 80.5609 60.3252 80.4383C61.6937 78.9926 62.0446 76.102 61.8666 74.1598C59.1764 74.2252 56.4317 73.8741 54.0945 72.4467ZM78.0336 77.8399C78.0225 77.8752 78.0098 77.9105 77.9971 77.9458C78.0049 77.9474 78.0131 77.949 78.0209 77.9511C78.0259 77.9137 78.0303 77.8768 78.0336 77.8399ZM18.3284 77.8399C18.03 77.6181 23.0455 71.1368 22.7206 73.0078C21.3213 74.674 19.6896 76.1342 18.3284 77.8399ZM62.6225 63.518C57.9319 62.409 53.8014 66.5519 49.0909 65.926C49.1455 67.4098 49.2212 68.9037 49.1915 70.3882C55.4468 70.9075 54.7351 73.587 61.9361 73.3173C62.8666 72.69 63.2488 68.8456 63.1702 67.685C63.2303 66.3128 62.0571 65.6968 60.8884 65.4561C60.4661 65.7127 59.7085 64.9471 60.3355 64.6778C61.1609 64.4279 61.9331 64.035 62.6225 63.518ZM28.0189 39.1979C26.3502 39.3635 24.6974 39.8212 23.1637 40.5286C17.4943 42.1759 16.6768 48.8554 17.3585 53.9171C17.641 57.7664 18.7317 61.531 21.0247 64.6612C27.1295 74.0316 37.2407 72.5479 46.8182 71.3084C47.1634 71.0667 47.7484 71.2384 48.0812 70.919C48.0464 70.9069 48.015 70.8903 47.9882 70.8697C48.1481 70.7441 48.2718 70.5238 48.3087 70.2897L48.3776 70.2966C48.4453 68.8434 48.3912 67.4186 48.4131 65.9768C45.266 65.1082 41.891 64.6642 38.7016 63.799C38.3391 64.0535 37.9211 63.7606 37.5669 63.6223C36.6489 63.2293 35.7227 62.856 34.7897 62.5005L34.5563 62.4121C33.9481 62.1826 33.3404 61.9473 32.7379 61.702L32.5122 61.6096C32.1671 61.4675 31.2955 60.9417 30.919 61.27L30.9494 61.3359C31.1726 61.8262 31.9417 63.6403 30.9963 63.2815C30.2286 62.7389 29.8305 58.9552 29.0701 58.9218C28.8086 59.6262 28.6213 60.3573 28.5784 61.1103C28.563 61.2798 28.3418 61.4227 28.2088 61.2644C27.3069 60.0689 28.6692 58.7668 28.7056 57.505C28.7915 56.0379 28.1466 54.6651 27.8253 53.2608L27.8055 53.1639C27.6171 52.2528 27.324 51.1482 27.4018 50.3311L27.5888 51.0404C27.7766 51.7501 27.9688 52.46 28.1895 53.1597C28.737 54.9075 29.7255 56.7081 29.1762 58.5782C30.2782 58.6151 30.4645 60.3659 30.8785 61.1655C31.5482 60.2907 36.2611 62.3882 37.3366 62.7247L37.544 62.4878C40.9122 58.6437 43.3436 56.0421 48.564 59.0829C47.6622 56.1546 47.5751 53.0445 47.4212 50.0037C47.474 49.4253 47.1418 47.8993 47.6102 47.5836C47.6915 47.5955 47.7706 47.6202 47.8452 47.6532L47.8451 47.9529C47.8474 48.5335 47.8743 49.4962 48.1162 49.7149L48.2271 50.8646C48.5178 53.8539 48.8475 56.841 49.7343 59.7218C51.8633 60.9198 53.8058 62.4199 55.6333 64.0382L55.8414 63.9617C58.0994 63.1296 60.8163 62.063 63.1249 63.1015C63.0863 62.5152 62.8615 61.954 62.5479 61.4582C62.0249 61.3276 61.6826 60.7724 61.3083 60.4028C60.1217 59.1196 58.9035 57.8659 57.7441 56.5569C52.7971 51.2 50.6924 42.4037 42.9238 40.3259C42.4102 44.6546 36.9086 45.3453 33.5932 43.8639L33.4674 43.8154C31.4065 43.0147 29.0774 41.8063 28.3536 39.6048L28.3235 39.541C28.2491 39.3858 28.1604 39.2275 28.0189 39.1979ZM29.2416 63.8311C29.2477 63.8244 29.2593 63.8334 29.2542 63.8408C28.2883 65.0609 27.5023 66.725 28.4623 68.1825C28.6397 68.5106 28.225 68.8258 27.9595 68.5757C26.6271 67.0526 28.1054 64.9882 29.2416 63.8311ZM62.8472 64.1067C62.3161 64.4884 61.7466 64.8055 61.1432 65.0556C61.1451 65.1255 61.1112 65.2004 61.0806 65.2553C61.8748 65.3188 62.7019 65.5253 63.2594 66.1083C63.2865 65.8951 63.313 65.6812 63.3333 65.4674C63.3846 64.9172 63.291 64.4249 62.8472 64.1067ZM26.3231 58.7132L26.3292 58.6838C26.3335 58.6504 26.3838 58.6481 26.3823 58.6838C26.3639 59.12 26.0486 59.4302 25.7816 59.7408C25.3854 60.2015 24.9891 60.6622 24.5926 61.1227C23.9299 61.9254 22.9535 62.7323 23.173 63.8952C23.1772 64.3082 22.6629 64.3967 22.4543 64.093C21.6246 62.5002 24.2364 61.145 25.1168 60.1174C25.5302 59.6727 26.1817 59.3454 26.3231 58.7132ZM38.7588 63.4951C38.7712 63.5149 38.78 63.5364 38.7848 63.5584C38.9238 63.5733 39.0623 63.5892 39.2008 63.6063L38.7588 63.4951ZM17.9841 59.7699C18.0089 59.9363 18.0321 60.1031 18.0543 60.2701L18.0762 60.4371L18.0796 60.4225C18.0909 60.3792 18.1123 60.3415 18.1403 60.3115L18.1498 60.3017C18.0923 60.1253 18.037 59.9481 17.9841 59.7699ZM56.1153 58.0472C56.4481 58.0114 54.9401 59.1029 54.8568 59.2379C54.7352 59.3443 54.5931 59.1553 54.7229 59.0631C55.1914 58.7304 55.6531 58.3888 56.1153 58.0472ZM53.1814 54.8365C53.413 54.741 53.5703 55.1292 53.3506 55.2373C52.5505 55.6313 51.7045 55.91 50.9674 56.4284C50.935 56.4511 50.8945 56.3981 50.9251 56.3738L51.0137 56.3033C51.6927 55.7604 52.371 55.1705 53.1814 54.8365ZM18.2603 49.9287C18.4839 50.9887 19.6938 51.3368 20.6327 51.6191L20.9261 51.7316C21.7552 52.051 22.6141 52.4103 23.2106 53.0853C23.4444 53.8466 21.7762 52.5204 21.5433 52.4533C20.4041 51.7422 18.3457 51.6214 18.2603 49.9287ZM42.958 40.0319C42.9643 40.0858 42.9674 40.1408 42.969 40.1959C43.0392 40.1959 43.1088 40.1964 43.179 40.1987C43.0973 40.1505 43.0224 40.0955 42.958 40.0319Z" fill="black"/>
<path fill-rule="evenodd" clip-rule="evenodd" d="M46.5855 25.295C46.207 20.6426 45.0547 16.5221 39.6401 16.3464C37.1966 16.3685 34.7024 16.8919 32.4554 17.8605C26.9939 20.6219 25.261 30.7123 30.0728 34.7741C30.0441 34.7905 30.0372 34.8379 30.071 34.8608C31.0651 35.5352 32.1701 36.0901 33.2768 36.5564C36.2247 37.8132 39.6949 38.359 42.7013 36.9958C47.2893 35.0271 47.3581 29.5491 46.5855 25.295Z" fill="#D08B5B"/>
<path fill-rule="evenodd" clip-rule="evenodd" d="M55.6161 23.1265C55.8047 22.9553 55.9453 22.7306 56.0164 22.4788C56.0815 22.2491 56.0859 21.9984 56.017 21.7693C55.9431 21.5236 55.7837 21.3279 55.8196 21.0721C55.8234 21.0471 55.8284 21.0209 55.8361 20.9948C55.974 20.5133 56.313 20.1658 56.1917 19.632C56.1576 19.4814 56.0931 19.3457 56.0032 19.239C56.0131 19.1233 56.0219 19.0066 56.0291 18.8898C56.2281 18.42 56.221 17.8617 56.0087 17.3992C55.9828 17.1623 55.9436 16.9277 55.8885 16.6969C55.9139 16.4929 55.8786 16.2683 55.8135 16.0898C55.6992 15.7757 55.558 15.4663 55.4047 15.1619C55.4227 15.0787 55.4146 14.9907 55.3691 14.9125C55.2863 14.7703 55.1768 14.6453 55.0649 14.5232C54.9858 14.3807 54.9062 14.2394 54.8271 14.0999C54.7905 14.0357 54.7501 13.9646 54.7056 13.8893C54.827 13.6621 54.8918 13.4407 54.7634 13.1736C54.7152 13.0732 54.5825 12.9992 54.4733 13.0058C54.3539 13.0129 54.2334 13.0183 54.1123 13.0229C53.8859 12.7473 53.6294 12.4998 53.3545 12.3573C53.076 12.1194 52.7938 11.8859 52.5192 11.6473C52.4414 11.5795 52.3631 11.5117 52.2854 11.4438C52.2849 11.4422 52.2843 11.4399 52.2837 11.4383C52.2264 11.2276 52.1619 11.0196 52.0974 10.8106C52.0571 10.681 52.045 10.5453 51.9199 10.4747C51.6585 10.3274 51.2566 10.304 50.9566 10.279C50.9269 10.2523 50.8971 10.2262 50.8673 10.1995C51.0035 9.83366 50.9792 9.44502 50.8078 9.07861C50.7493 8.95407 50.5464 8.89791 50.4351 8.9802C50.1781 9.17035 49.8732 9.23763 49.5716 9.20983C49.1283 8.86622 47.3403 7.31243 47.064 7.14841C47.0606 7.14251 47.0578 7.13662 47.0542 7.13078C46.8989 6.88069 46.7103 6.67986 46.4982 6.51885C46.468 6.48699 46.4377 6.45507 46.4074 6.42316C46.434 6.23251 46.5041 6.04841 46.6169 5.8944C46.6291 5.87661 46.6428 5.85937 46.6566 5.84269C46.854 5.60584 46.6131 5.30115 46.3374 5.42514C46.3175 5.43403 46.2977 5.44293 46.2779 5.45238C46.0659 5.54768 45.8314 5.65126 45.5872 5.73867C45.4979 5.70492 45.4068 5.67434 45.3237 5.64064L44.434 5.27997C44.2876 5.22059 44.1328 5.17027 43.9911 5.10049C43.9417 4.76917 43.6124 4.55189 43.2705 4.56323C43.2902 4.49962 43.3197 4.43785 43.3612 4.3793C43.3733 4.36207 43.3865 4.34539 43.4003 4.32926C43.5762 4.12299 43.3413 3.74046 43.0899 3.92394C43.0723 3.93673 43.0541 3.94951 43.0364 3.9623C42.9666 4.01173 42.8951 4.0581 42.8228 4.10303C42.7071 4.0521 42.5767 4.04048 42.4403 4.09435C42.1383 4.21361 41.8598 4.33488 41.5939 4.52181C41.5831 4.52942 41.5719 4.53582 41.561 4.54299C41.429 4.38219 41.2195 4.27466 41.0307 4.27583C41.0269 4.27583 41.0239 4.27578 41.0205 4.27572C40.8794 4.05894 40.6207 3.93295 40.371 3.96358C40.3878 3.6525 40.079 3.37489 39.7979 3.34114C39.4694 3.30177 39.1733 3.4941 39.0747 3.81724C39.0473 3.9072 39.0199 3.99722 38.9924 4.08724C38.7374 3.95741 38.4682 3.85794 38.187 3.80829C37.5467 3.6952 36.9207 3.81563 36.3036 3.99488C36.242 4.01279 36.1804 4.03119 36.1188 4.04954C36.0308 3.94673 35.9483 3.84148 35.8694 3.74324C35.7332 3.57366 35.4062 3.70932 35.4283 3.92727C35.4436 4.07767 35.383 4.18587 35.2855 4.26276C35.1784 4.27856 35.0748 4.28334 34.9187 4.28017C34.7123 4.27594 34.6184 4.26944 34.4026 4.18459C34.3021 4.14512 34.1768 4.04131 34.1182 3.94812C33.8936 3.59078 33.3228 3.49454 33.051 3.83526C32.765 3.70899 32.4039 3.88313 32.2451 4.12866C32.162 4.25704 31.9886 4.32882 31.7704 4.39053C31.6066 4.43679 31.4391 4.47182 31.2708 4.50246C31.1958 4.39987 31.0379 4.3311 30.9221 4.41711C30.8436 4.47555 30.7674 4.53554 30.6923 4.59703C30.1128 4.67754 29.5364 4.68043 28.9839 4.45258C28.5161 4.25965 28.0866 4.78657 28.1638 5.22893C28.0283 5.30004 27.8813 5.34735 27.7475 5.42186C27.4556 5.58454 27.2158 5.84169 27.0697 6.14382C27.0435 6.19792 27.0199 6.25286 26.9973 6.30807C26.8882 6.39764 26.7803 6.4896 26.675 6.58662C26.4997 6.49599 26.3249 6.40537 26.1496 6.31474C26.0183 6.24691 25.7973 6.29417 25.7713 6.46986C25.7289 6.75898 25.6258 6.99862 25.4786 7.19933C25 7.45287 24.5396 7.73754 24.0991 8.05391C23.5924 8.21403 23.0537 8.30744 22.611 8.41253C22.4594 8.44867 22.3767 8.64827 22.4621 8.78115C22.5525 8.92182 22.643 9.06249 22.7328 9.20316C22.4809 9.45113 22.2443 9.71023 22.021 9.97822C21.3997 10.7233 20.8797 11.54 20.4144 12.4052C20.2302 12.4802 20.0461 12.5547 19.8619 12.6298C19.6844 12.7021 19.6044 12.91 19.7483 13.0629C19.8167 13.1357 19.8779 13.2125 19.9303 13.2931C19.6695 13.7284 19.3624 14.1254 18.9329 14.3856C18.8022 14.4646 18.7041 14.5886 18.6517 14.7292C18.607 14.7593 18.5629 14.7915 18.5194 14.8243C18.3981 14.9166 18.3248 15.1179 18.467 15.2374C18.5668 15.3219 18.6605 15.422 18.7399 15.5327C18.757 15.5955 18.7747 15.6589 18.7923 15.7217C18.3931 16.092 18.0612 16.5223 17.812 17.005C17.753 16.9955 17.6923 17.0016 17.6433 17.0383C17.1978 17.3702 17.1846 17.899 17.3637 18.3716C17.2557 19.0838 17.3251 19.8139 17.5336 20.5039C17.2595 20.7796 17.0947 21.1777 17.0274 21.5614C16.9089 22.2352 16.9006 23.2716 16.8697 23.9594C16.5709 24.2502 16.3581 24.6266 16.2395 25.0314C16.1397 25.0814 16.0399 25.1314 15.9401 25.1815C15.8514 25.226 15.7863 25.3433 15.7918 25.4422C15.8172 25.921 16.0129 26.299 16.2726 26.6415C16.3647 26.9056 16.5009 27.1492 16.6795 27.3827C16.803 27.5428 16.9238 27.6963 17.0302 27.8692C17.0412 27.8864 17.0478 27.9025 17.0528 27.9137C17.0109 27.9593 16.9761 28.0349 16.9458 28.0888C16.6911 28.5414 16.6872 29.0718 17.0489 29.466C16.9127 29.5783 16.9083 29.8052 17.0285 29.9442C17.8109 30.8455 18.4631 31.9413 19.5488 32.4201C19.5537 32.4284 19.5581 32.4367 19.562 32.4451C19.342 32.9788 19.3122 33.2563 19.492 33.8078C19.4931 33.8128 19.4947 33.8173 19.4964 33.8223C19.5923 34.1114 19.7687 34.5746 20.0869 34.6646C20.1872 34.693 20.2859 34.7058 20.3835 34.7052C20.636 34.9504 20.888 35.1962 21.14 35.4419C21.162 35.5637 21.1758 35.6866 21.1802 35.8105C21.1874 36.0179 21.3809 36.1858 21.5893 36.1247C21.6626 36.103 22.0684 35.7055 22.1429 35.7077C22.1804 35.7455 22.2168 35.7833 22.2531 35.8217C22.3871 35.9634 22.5729 36.187 22.5884 36.3354C22.6181 36.6151 22.8001 36.9353 23.094 36.992C23.2042 37.1049 23.3807 37.1388 23.5157 36.9915C23.5246 36.982 23.5334 36.9726 23.5428 36.9642C23.5571 36.9626 23.5709 36.9609 23.5852 36.9592C23.6503 37.1549 23.7153 37.3507 23.781 37.5458C23.9094 37.9306 24.4001 38.178 24.7486 37.9534C24.8048 37.9873 24.86 38.0234 24.9151 38.0596C24.9989 38.1135 25.0838 38.1685 25.1709 38.2202C25.1759 38.2347 25.1808 38.2492 25.1852 38.2631C25.2415 38.436 25.4753 38.5288 25.6192 38.4293C25.6638 38.4438 25.7096 38.4554 25.7559 38.4649C25.999 38.5133 26.2438 38.4999 26.4787 38.4182C26.6469 38.3604 26.8073 38.2497 26.9882 38.2347C26.9995 38.2337 27.0111 38.2345 27.0226 38.2342C27.1701 38.539 27.5073 38.8017 27.773 38.8909C28.121 39.0078 28.4772 38.966 28.7941 38.8228C28.8796 38.9953 28.987 39.1585 29.1153 39.3094C29.1864 39.3928 29.3149 39.3751 29.3882 39.3094C29.5275 39.185 29.6659 39.0599 29.8041 38.9346C29.9041 38.8957 30.005 38.8491 30.1103 38.8057C30.4397 38.67 30.8008 38.6138 31.1054 38.4178C31.25 38.3247 31.3861 38.206 31.4981 38.0683C31.7091 37.9455 31.9031 37.7924 32.0777 37.617C32.1648 37.6175 32.2558 37.597 32.344 37.5519C32.7129 37.3629 32.907 36.9781 32.9241 36.5845C33.2229 35.8756 33.3993 35.1194 33.4478 34.3455C33.4633 34.0914 33.466 33.8351 33.4467 33.581C33.4335 33.4019 33.3888 33.2824 33.3216 33.1206C33.299 33.0678 33.2786 33.0194 33.2626 32.966C33.2664 32.7948 33.2687 32.6235 33.2709 32.4529C33.3166 32.3088 33.3982 32.1749 33.5118 32.062C33.6877 31.8874 33.7682 31.5249 33.6083 31.3092C33.5041 31.1696 33.4004 31.0301 33.2962 30.8905C33.3254 30.2917 33.4677 29.3387 33.1523 29.2386C33.165 29.1497 33.192 29.0618 33.2075 28.9734C33.2813 28.5486 33.2372 28.1689 33.0134 27.7975C32.9665 27.7202 32.9268 27.6518 32.8943 27.5851C32.8739 27.4628 32.8535 27.3404 32.8331 27.2181C32.8017 27.0296 32.7708 26.8395 32.7443 26.6482C32.7305 26.4047 32.7178 26.1612 32.7041 25.9171C32.6914 25.6924 32.677 25.4678 32.6622 25.2426C32.6682 25.142 32.677 25.0414 32.6897 24.9407C32.7653 24.3408 33.0084 24.119 33.4296 23.702C33.4958 23.6914 33.5614 23.6797 33.6259 23.6664C33.9264 23.6036 34.2407 23.5063 34.55 23.5413C34.8858 23.5791 35.1863 23.7253 35.5127 23.5385C35.6086 23.4829 35.8198 23.3294 35.838 23.2077C35.8391 23.1999 35.8407 23.1932 35.8429 23.1882C35.8655 23.1849 35.8948 23.1821 35.9129 23.1816C36.1721 23.1727 36.4196 23.2755 36.681 23.2472C36.9903 23.2138 37.2671 23.0754 37.449 22.8702C37.6822 22.928 37.9204 22.9542 38.1625 22.9219C38.3654 22.8952 38.5473 22.8285 38.7271 22.7295C38.8577 22.6584 38.8164 22.6378 38.9586 22.6956C39.2823 22.8279 39.575 23.0025 39.9395 22.9119C40.1286 22.8652 40.2918 22.7623 40.4291 22.6239C40.4616 22.5916 40.5168 22.5433 40.5537 22.4977C40.7268 22.5861 41.1624 22.7857 41.2341 22.8035C41.437 22.8535 41.652 22.8457 41.8494 22.779C41.9944 22.7301 42.1719 22.5966 42.2993 22.5694C42.4641 22.5338 42.8302 22.7651 43.0271 22.8446C43.3722 22.9842 43.7378 23.0186 44.0873 22.8746C44.2075 22.8252 44.4413 22.6278 44.5312 22.6294C44.6773 22.8113 45.0853 23.8059 45.2077 24.169C45.7033 25.6369 45.8318 30.22 45.603 31.3892C45.5942 31.4237 45.5848 31.4576 45.5754 31.4921C45.2942 32.509 45.0015 33.5432 44.5312 34.4906C44.0873 35.3835 43.4737 36.1875 42.5931 36.6751C41.6801 37.1811 40.6083 37.314 39.5817 37.2456C38.9206 37.2022 38.2705 37.0682 37.631 36.9003C37.2968 36.813 36.9655 36.7157 36.6358 36.6145C36.4919 36.5706 36.3458 36.5294 36.2046 36.4783C35.9554 36.3877 35.8247 36.3804 35.586 36.4966C35.3688 36.6023 35.3131 36.9142 35.4261 37.1105C35.6103 37.4307 35.9477 37.453 36.2735 37.5464C36.6054 37.6414 36.9385 37.7326 37.2737 37.8144C37.916 37.97 38.5688 38.0896 39.2271 38.1446C40.4059 38.2441 41.6206 38.0907 42.6935 37.5719C42.8148 37.513 42.9317 37.4502 43.0447 37.3824C43.0028 37.4413 42.9604 37.5002 42.9173 37.5586C42.7983 37.7204 42.8865 37.9956 43.0535 38.084C43.1065 38.1118 43.1594 38.1385 43.2129 38.1646C43.22 38.1819 43.2278 38.1991 43.2366 38.2164C43.3893 38.5255 43.7091 38.7079 44.0349 38.7868C44.422 38.8802 44.8554 38.814 45.249 38.8024C45.614 38.7913 45.979 38.7801 46.3435 38.769C46.4295 38.7668 46.5155 38.764 46.6015 38.7612C47.0349 38.7479 47.4677 38.7351 47.9005 38.7218C48.2864 38.7101 48.2682 38.7401 48.6305 38.5844C48.792 38.5144 48.9244 38.4154 49.0357 38.2836C49.1052 38.2525 49.1725 38.2169 49.237 38.1763C49.4443 38.0462 49.6284 37.8716 49.7982 37.6793C50.0866 37.771 50.4907 37.6859 50.547 37.3206C50.6374 36.7363 51.3906 36.4866 51.7423 36.0641C52.0263 35.7232 52.2292 35.2768 52.2187 34.8481C52.9343 34.4989 53.3236 33.5788 53.4146 32.7981C53.457 32.4362 53.4504 32.0486 53.5116 31.6806C53.5386 31.6511 53.5629 31.62 53.5833 31.5866C53.763 31.2936 53.9196 30.9917 54.0575 30.6825C54.2449 30.5463 54.4704 30.4624 54.7064 30.4485C55.2864 30.4146 55.3956 29.6256 54.8426 29.4354C54.8398 29.4343 54.8376 29.4338 54.8349 29.4327C54.9848 29.0546 54.9722 28.607 54.7902 28.2489C54.7979 28.21 54.8051 28.1717 54.8123 28.1327C55.1227 27.7964 55.3008 27.3288 55.2809 26.8734C55.4226 26.7728 55.5814 26.6949 55.7551 26.6465C56.0236 26.572 56.0252 26.2418 55.8268 26.0939C55.7468 26.0344 55.6806 25.9649 55.6255 25.8882C55.7628 25.4723 55.7088 24.9913 55.4281 24.65C55.6062 24.4198 55.7843 24.1896 55.9624 23.9594C56.0804 23.8071 56.1427 23.5485 55.9624 23.404C55.8472 23.3111 55.7319 23.2188 55.6161 23.1265Z" fill="black"/>
<path fill-rule="evenodd" clip-rule="evenodd" d="M40.9462 33.7451C40.5748 33.5927 40.2434 33.3383 40.0011 33.0134C39.9169 32.9005 39.8951 32.7812 39.9127 32.6721C39.9326 32.5495 40.0047 32.4383 40.1031 32.3637C40.2017 32.2889 40.3251 32.252 40.4444 32.2708C40.5481 32.2872 40.6513 32.3443 40.733 32.4628L40.75 32.4864C40.8941 32.6825 41.0818 32.8434 41.2956 32.9471C41.5018 33.0471 41.7323 33.0938 41.9709 33.0666C42.4253 33.015 42.7385 32.7677 43.0713 32.4319C43.1126 32.3895 43.1539 32.3458 43.1954 32.3013C43.2216 32.2611 43.2579 32.2352 43.2983 32.2216C43.3431 32.2065 43.3938 32.2074 43.4403 32.2237C43.4851 32.2394 43.5251 32.2692 43.552 32.3089C43.5775 32.3466 43.592 32.3932 43.5873 32.4468C43.5568 32.7948 43.376 33.1053 43.1192 33.3492C42.8339 33.6201 42.4558 33.8074 42.0999 33.8732C41.7077 33.9456 41.3081 33.8937 40.9462 33.7451ZM42.2849 28.3764C42.7021 28.6316 43.3378 29.2267 42.889 29.8594C42.3606 30.4173 41.6 29.7777 41.2251 29.4884C40.8775 29.2642 40.487 29.8408 40.8095 30.1026C43.5182 32.1206 44.6174 28.4432 42.4959 28.0764C42.2623 28.036 42.1755 28.2975 42.2849 28.3764ZM37.4309 26.029C37.477 25.4532 38.3485 25.3224 38.4352 25.8922C38.5128 26.4026 38.4214 26.8715 38.193 27.331C37.9747 27.77 37.426 27.5652 37.3845 27.1654C37.3289 26.6296 37.4022 26.3872 37.4309 26.029ZM44.0647 25.774C44.1862 25.6139 44.3616 25.5046 44.5718 25.5664C45.2284 25.7595 45.0349 26.6976 44.8043 27.1543C44.679 27.4022 44.2739 27.4651 44.0909 27.2468C43.7925 26.8907 43.6496 26.1797 44.0289 25.8289C44.0392 25.8108 44.0506 25.7925 44.0647 25.774ZM38.1837 23.5094L38.2874 23.4911C38.6083 23.4353 39.0073 23.3816 39.2343 23.6412C39.3547 23.7789 39.3962 24.0348 39.2343 24.1665C38.9497 24.3984 38.6349 24.3085 38.2938 24.3282C38.0127 24.3444 37.7425 24.3912 37.4717 24.4691C36.8777 24.64 36.3936 24.9519 35.8862 25.2944C35.8196 25.3393 35.7517 25.2536 35.7834 25.191C36.0763 24.6137 36.6439 24.1395 37.2125 23.8504C37.5159 23.6961 37.848 23.5681 38.1837 23.5094ZM43.4661 23.2508L43.5455 23.2672C44.4095 23.4489 45.532 23.8119 45.9411 24.6659C45.9567 24.7867 45.9402 24.8125 45.9268 24.8295L45.9224 24.8351C45.9113 24.8495 45.9025 24.8694 45.8505 24.8859C45.8361 24.8824 45.8215 24.8787 45.8068 24.8748C45.6192 24.8254 45.4708 24.7573 45.3272 24.6866L45.1714 24.6093C44.9907 24.5202 44.8084 24.4343 44.6152 24.3708C44.2029 24.2355 43.7789 24.1402 43.3482 24.0893C43.2549 24.0782 43.165 24.0465 43.0941 23.9922C43.0268 23.9406 42.9754 23.8692 42.9519 23.7743C42.9215 23.6515 42.9303 23.5585 42.9957 23.4477C43.045 23.3645 43.1154 23.3068 43.1964 23.2737C43.2788 23.2399 43.3727 23.232 43.4661 23.2508Z" fill="black"/>
</svg>
