<svg width="100" height="198" viewBox="0 0 100 198" fill="none" xmlns="http://www.w3.org/2000/svg">
<path fill-rule="evenodd" clip-rule="evenodd" d="M23.6611 74.3C25.6464 78.711 28.1009 82.6109 31.0076 86.5058C30.8038 77.3027 30.6282 68.0502 30.3278 58.7626C28.4871 62.3515 26.5258 65.5992 23.9076 69.162C21.8549 71.3542 22.812 72.2642 23.6611 74.3ZM17.1524 181.97C16.9224 181.645 17.0586 181.231 17.3768 181.02C16.6992 179.561 18.7409 178.434 19.7458 177.335C22.0299 174.858 25.6282 171.309 25.9485 168.182C27.0378 161.088 27.6603 153.969 29.4046 146.958C30.4409 142.505 33.3182 138.932 34.6038 134.558C36.8394 122.998 33.9513 111.405 34.4507 99.7293C28.1498 99.1116 28.9658 99.897 29.6407 94.6594C29.219 94.3669 28.8081 94.057 28.4242 93.7448C27.4182 94.2812 26.2307 95.5962 25.1231 95.5267C24.7724 95.4447 24.5197 95.0055 24.2792 94.6282C22.5004 91.8251 20.8469 89.0849 19.228 86.2599C10.2758 72.1532 12.3007 68.9589 20.6511 55.4362C24.1678 50.2137 28.4873 42.614 35.1868 42.0866C35.9956 42.0873 36.8483 42.0442 37.545 41.5359C37.5499 40.7264 37.9638 40.4652 39.0138 40.3173C39.6051 40.2566 40.069 39.912 40.6462 40.0526C41.0579 38.6786 40.9754 37.5737 41.4222 36.2143C42.9528 33.8941 47.9184 35.0517 49.7367 35.7793C51.9962 36.5645 49.8468 40.0788 51.3216 41.6836C51.643 41.863 51.9777 41.949 52.4061 41.9488C54.2331 41.5423 55.1234 43.7346 55.987 45.1806C58.459 45.4852 60.3117 45.852 61.4489 46.7425C62.4919 47.5294 63.2586 48.7951 64.278 51.4125C66.4126 56.0806 67.8122 60.7167 68.4305 65.1889C68.9685 68.2195 70.4634 70.8422 71.6633 73.5949C74.6091 80.7619 75.8808 85.5089 75.1756 91.8171C74.4277 91.6832 73.6737 91.4115 72.8864 91.3101L72.5682 92.0625C72.548 92.0474 72.5397 92.0306 72.5383 92.0258C71.6146 98.3398 74.1487 111.197 65.8811 109.505C65.1516 116.453 62.825 122.63 60.0255 128.441C58.8933 130.627 57.7547 132.937 57.7737 135.503L58.1998 135.513C58.2723 135.515 58.2955 135.529 58.2958 135.529C58.3769 135.549 58.2827 136.182 58.1918 136.539C56.8543 141.262 55.6977 145.983 54.6593 150.762C54.4401 151.406 54.3454 153.14 53.8381 153.434C53.8602 153.671 53.1606 154.135 53.1065 154.12C53.2284 155.031 52.7868 155.44 52.8017 156.365C52.7993 156.343 53.4221 156.376 53.395 156.357C53.7668 156.357 54.1882 157.146 54.1933 157.681C54.2272 158.325 53.6825 158.93 53.4921 159.562C53.1969 160.949 53.243 162.355 53.1116 163.75C54.3513 164.031 54.073 165.348 52.986 165.413C52.986 165.413 52.788 167.253 52.8271 168.17C53.5729 168.26 53.9042 168.924 54.1505 169.439C55.0678 169.449 55.9263 169.867 56.778 170.301C58.7635 171.273 60.7134 172.292 62.4819 173.324C64.0423 174.36 67.4435 175.5 65.6775 177.681C65.7043 177.737 65.2986 178.749 64.7513 178.657C62.0511 178.919 51.7828 176.69 49.4073 176.196C48.601 176.005 45.0729 175.545 46.5381 174.355C45.9921 172.831 45.968 169.94 47.615 169.586C47.775 168.155 48.9811 167.652 50.184 168.182C50.1764 167.152 50.2407 166.26 50.2515 165.229C49.6724 165.153 49.0313 164.939 48.864 164.5C48.7053 164.257 48.7668 163.433 49.363 163.427C49.3805 163.425 49.8112 163.446 49.8286 163.446C49.7596 161.778 49.9051 160.364 49.6553 158.693C49.5213 158.139 49.0831 158.049 48.7963 157.763C48.527 156.934 49.355 156.264 50.0634 156.124C50.2437 155.281 49.8629 154.387 50.0634 153.56C49.6015 153.544 49.2409 153.521 48.9409 153.24C48.8106 153.113 48.5974 153.152 48.4316 153.14C48.271 151.399 47.1841 149.912 46.943 148.237C46.6034 146.254 47.2435 144.185 47.4728 142.164C47.6585 140.484 47.3625 138.764 47.2146 137.114C41.1275 146.822 32.9079 156.178 31.4363 167.996C31.2796 168.905 31.1845 169.923 32.024 170.814L32.06 170.824C32.2735 171.253 32.4076 172.069 32.5606 172.511C33.3534 173.136 32.6257 174.338 32.0531 174.88C31.8794 175.078 31.7314 175.307 31.5727 175.514C28.5815 179.085 28.2431 183.119 22.501 182.847C21.0894 182.758 17.7861 182.803 17.1524 181.97Z" fill="#D08B5B"/>
<path fill-rule="evenodd" clip-rule="evenodd" d="M32.4761 171.151L32.5052 171.227L32.5338 171.302C32.9028 172.288 32.9545 172.615 32.7152 173.198L32.7062 173.22C32.6213 173.42 32.5181 173.597 32.3183 173.901L32.1112 174.214L32.0412 174.322C31.9514 174.46 31.8697 174.591 31.7893 174.725L31.7424 174.804L31.5836 175.041L31.4806 175.196C31.3359 175.416 31.1809 175.655 30.9728 175.978L30.3998 176.871L30.1598 177.242C29.5581 178.169 29.168 178.735 28.7101 179.337L28.5918 179.491L28.5302 179.568L28.4689 179.643C27.3835 180.969 26.2104 181.873 24.8806 182.254L24.8362 182.266L24.7947 182.278L24.7518 182.281C22.8937 182.431 21.0349 182.271 18.5143 181.829L18.3525 181.8L18.1569 181.765L17.731 181.687L17.6312 181.587C17.0481 181.001 16.9681 180.325 17.3259 179.651C17.5604 179.21 17.9205 178.828 18.5667 178.266L19.0708 177.83C19.5352 177.426 19.6121 177.347 19.7271 177.189L19.7744 177.124L19.7967 177.1C21.8831 174.922 23.6258 172.824 24.9709 170.354L25.0231 170.258L25.1018 170.112L25.2562 170.052C26.52 169.558 27.9355 169.613 29.1204 170.216L29.1594 170.236L29.1972 170.256L29.2362 170.278C29.4355 170.389 29.6025 170.51 29.8923 170.739L30.0547 170.867L30.1309 170.926C30.3827 171.12 30.5286 171.214 30.7053 171.292C31.0477 171.442 31.4542 171.417 31.5913 171.269L31.5988 171.261L31.6053 171.252L31.787 170.746L32.4761 171.151ZM47.7483 169.389C47.8078 169.575 47.5799 170.311 47.7454 170.565C47.8945 170.794 48.4193 170.731 48.7833 170.727L48.8574 170.726L48.9331 170.724C49.0519 170.72 49.1778 170.713 49.3421 170.701L49.8242 170.666L49.8646 170.663C49.8775 170.662 49.8902 170.662 49.9037 170.661L49.9791 170.657L50.0266 170.656L50.0447 170.654C50.6409 170.607 51.1312 170.282 52.0885 169.905L52.5342 169.728C52.9811 169.551 53.232 169.46 53.5344 169.367L53.5781 169.354L53.6012 169.349C54.4535 169.183 55.5188 169.505 56.9655 170.227L57.0571 170.273L57.1555 170.323C57.3866 170.441 57.6299 170.57 57.9037 170.72L58.3275 170.953C58.6223 171.116 58.987 171.318 59.1154 171.388L59.2378 171.455L59.3493 171.514C59.6266 171.663 59.848 171.775 60.0405 171.863L60.1039 171.891L60.1191 171.899C61.7766 172.798 63.2994 173.686 64.7291 174.595L64.8413 174.666L64.8793 174.687C66.6 175.643 66.6238 177.185 65.0032 178.257L64.9536 178.29L64.902 178.322L64.7771 178.4L64.6303 178.39C62.1284 178.209 59.5413 177.841 56.6998 177.284L56.4209 177.229C54.293 176.805 52.1932 176.318 49.2149 175.575L48.6267 175.428L47.6684 175.187L47.6435 175.185C46.5982 175.077 46.0188 174.292 46.0197 173.21L46.0203 173.148L46.0202 173.097C46.019 171.961 46.5129 170.914 46.9337 170.066L46.9557 170.022L46.9781 169.979L47.7483 169.389Z" fill="white"/>
<path fill-rule="evenodd" clip-rule="evenodd" d="M50.1773 165.767C51.0567 165.831 51.9316 165.921 52.8251 165.927C52.7517 167.042 52.9919 168.344 52.9685 169.46C52.9263 169.465 53.287 169.934 51.178 170.505C50.5923 170.664 47.7454 170.866 47.7454 170.866C47.7454 170.866 47.8993 169.137 48.2272 168.459C48.5322 167.829 50.094 168.339 50.094 168.339C50.094 168.339 50.1775 165.803 50.1773 165.767ZM49.2378 163.462C49.7402 163.382 52.5636 163.389 53.7073 163.947C54.2385 164.207 53.79 165.179 53.6929 165.245C53.1063 165.625 52.1111 165.481 51.4594 165.467C50.8228 165.412 49.8647 165.529 49.3101 165.164C48.8001 164.887 48.5641 163.68 49.2378 163.462ZM48.632 133.582C51.1622 134 54.0332 136.888 56.7901 135.801C57.3038 135.653 57.8342 135.556 58.3751 135.65C58.6572 135.752 58.5496 136.082 58.399 136.374L58.3769 136.416C57.8256 138.537 57.3149 140.669 56.8198 142.804C56.1552 145.447 55.5384 148.098 54.9585 150.767C54.8508 151.083 54.7733 151.662 54.6621 152.204L54.5969 152.48L54.5481 152.685L54.5332 152.737C54.435 153.072 54.3101 153.579 54.1373 153.679C54.1393 153.701 54.1353 153.725 54.1262 153.75C54.0361 153.779 53.9285 153.785 53.8019 153.763C52.2659 153.709 50.1853 153.565 48.6507 153.449C48.5248 153.369 48.3491 153.394 48.2049 153.387C48.1161 152.53 47.8239 151.488 47.5132 150.69L47.3494 150.271L47.3023 150.15C46.2884 147.888 46.7788 145.459 47.2002 143.119L47.2519 142.83C47.5239 141.158 47.1689 138.999 47.0099 137.323L46.9765 136.976C47.5938 135.875 48.1442 134.745 48.632 133.582Z" fill="#9DDADB"/>
<path fill-rule="evenodd" clip-rule="evenodd" d="M34.2617 99.5137C34.0682 99.5004 33.8363 99.49 33.5797 99.4784C32.2106 99.4168 30.1685 99.3082 29.4314 98.618C29.4202 98.6076 29.4091 98.5967 29.3982 98.5856C29.3967 98.5709 29.3952 98.5561 29.3939 98.5414C29.3278 97.8299 29.4454 97.1053 29.5636 96.3851C29.6237 96.0188 29.6837 95.6537 29.7179 95.2922C29.7244 95.2237 29.73 95.1549 29.735 95.086C29.7905 95.1254 29.8472 95.1647 29.9052 95.2038C32.0344 96.6381 33.8075 96.4067 35.6323 96.1744C36.8725 96.0166 38.1366 95.8578 39.5472 96.1861C39.9408 96.279 40.3599 96.4476 40.7892 96.6208C41.7431 97.0059 42.7551 97.4328 43.639 96.9823C43.8582 96.8041 43.9918 96.6382 44.0535 96.4808C44.1157 96.3219 44.0987 96.1752 44.0286 96.0405C43.8023 95.6054 43.0944 95.2868 42.5487 95.0609L42.4905 95.0369L41.4875 94.6295C41.8068 94.667 42.1245 94.7073 42.4375 94.7588C42.8546 94.8275 43.2731 94.9179 43.6928 95.0085C44.597 95.2038 45.5066 95.4015 46.4188 95.378C46.5032 95.354 46.5673 95.3149 46.6132 95.2633C46.6671 95.2026 46.695 95.126 46.7063 95.0433C46.7397 94.7977 46.6323 94.501 46.5069 94.3134C46.1701 93.799 45.6519 93.4805 45.0905 93.2913L45.1393 93.0574C45.3461 93.0751 45.5555 93.1168 45.7656 93.159C46.073 93.2206 46.3819 93.2843 46.685 93.2615C46.8664 93.1918 46.9841 93.1057 47.0457 93.0028C47.1119 92.8921 47.1068 92.7659 47.0641 92.6373C46.9178 92.1955 46.3527 91.7206 45.9981 91.5136C44.7798 90.7074 43.3776 90.3165 41.9821 89.9254C41.1441 89.6905 40.3083 89.456 39.5154 89.1363C39.4589 89.1136 39.4027 89.0904 39.3466 89.0667C39.3896 89.0186 39.4347 88.9741 39.4819 88.9335C40.0392 88.455 41.0899 88.3644 42.1448 88.2854C42.9472 88.2254 43.7492 88.1688 44.305 87.9143C44.675 87.7448 44.931 87.4837 44.9785 87.0561C44.9506 86.7978 44.8697 86.5921 44.7469 86.4301C44.6082 86.247 44.417 86.1205 44.1955 86.0333C43.5452 85.7773 42.6419 85.8524 41.9315 85.9241L41.6235 85.9557L41.5143 85.9665C38.6477 86.2972 35.8566 87.3641 33.4839 88.9998C33.4535 89.0208 33.4232 89.0419 33.3929 89.0627C33.3694 89.0342 33.3459 89.0057 33.3225 88.9772C32.5849 88.0801 31.8643 87.1685 31.1641 86.2413C31.1564 86.231 31.1486 86.2208 31.1409 86.2102C31.1406 86.1975 31.1402 86.1849 31.1399 86.1723C31.052 83.1291 31.0055 80.0726 30.959 77.0139C30.8683 71.0564 30.7775 65.0909 30.381 59.201L30.4972 58.9624C30.5795 58.7929 30.6548 58.6379 30.7231 58.4972C30.6946 58.544 30.6652 58.5923 30.635 58.6422L30.4656 58.923L30.2218 59.3302L30.2187 59.2317C30.2172 59.2344 30.2158 59.2372 30.2144 59.2399C30.1974 59.2372 30.1795 59.2372 30.1609 59.2405C30.1025 59.2508 30.0623 59.2889 30.0368 59.3377C29.9995 59.409 29.9905 59.5015 30.0043 59.5909C30.0063 59.6034 30.0086 59.6158 30.0114 59.6281C30.0049 59.6405 29.9984 59.6529 29.9919 59.6652C29.9528 59.7397 29.9136 59.814 29.8742 59.8881C28.3521 62.3556 26.7632 64.7773 25.0657 67.1191C24.8103 67.5508 24.4156 68.0287 24.0012 68.5292C23.1535 69.5533 22.2003 70.6758 22.3061 71.6973C24.457 78.0204 28.314 83.6975 32.4583 88.895C32.477 88.9185 32.4958 88.942 32.5136 88.9658C32.4967 88.9902 32.4798 89.0145 32.4629 89.0388C30.8682 91.3254 28.7947 93.2808 26.4035 94.7183C26.3174 94.7653 26.2305 94.821 26.1406 94.8784C25.8968 95.0343 25.6322 95.1972 25.3896 95.2245C25.1885 95.2472 24.9977 95.189 24.8362 94.9792C21.2545 89.4505 17.8722 83.7635 14.9564 77.8636C12.4286 73.2296 13.6343 67.9039 16.1572 63.545L16.3771 63.148C16.5475 62.8401 16.7181 62.5313 16.8889 62.222C20.3349 55.9829 23.9022 49.5292 29.2802 44.7798L29.3733 44.7056C30.7814 43.5895 32.3629 42.5705 34.1577 42.2556C34.5097 42.1981 34.8683 42.1783 35.2271 42.1587C35.8255 42.1261 36.4249 42.0954 36.9853 41.8753C37.042 41.853 37.0976 41.829 37.1523 41.8037C37.1536 41.8687 37.1527 41.9319 37.1497 41.9933C37.1058 42.8678 37.1291 43.5953 37.3188 42.3357C37.3373 41.9977 37.3684 41.7302 37.418 41.5153C37.5028 41.1663 37.6343 40.9492 37.829 40.7928C38.0433 40.6206 38.341 40.5241 38.7616 40.4172L39.1934 40.3097L39.4543 40.2438C40.4365 48.8891 42.5793 57.3439 44.722 65.8002C47.3418 76.1388 49.9612 86.4796 50.4682 97.1719L50.474 97.2161C50.5136 97.5377 50.5178 97.9125 50.386 98.191C50.28 98.415 50.0923 98.5842 49.7713 98.6292C49.2748 98.7493 48.7542 98.8126 48.2408 98.8747C48.105 98.8912 47.9697 98.9076 47.8357 98.9249L47.5653 98.9604C43.2218 99.5254 38.8287 99.6727 34.4527 99.5462C34.4182 99.5452 34.3838 99.5442 34.3495 99.5431C34.3485 99.5353 34.3475 99.5274 34.3465 99.5195L34.2617 99.5137ZM74.9163 90.1464C74.8945 90.4963 74.8636 90.8456 74.8236 91.1936C74.8183 91.2395 74.8129 91.2855 74.8072 91.3313C74.7627 91.3195 74.7182 91.3079 74.6737 91.2963C72.7942 90.8094 70.8332 90.5322 68.8939 90.7573C68.8534 90.762 68.813 90.7669 68.7728 90.7716C68.7687 90.7312 69.0375 93.2995 66.1389 97.6514C66.0682 97.7923 65.6161 98.2374 65.6073 98.2604C65.5827 98.2631 65.5582 98.2657 65.5336 98.2683C63.0203 98.5353 60.481 98.5044 57.978 98.1438C57.9447 98.139 57.9114 98.1341 57.8781 98.1291C57.8769 98.0955 57.8757 98.0618 57.8748 98.0281C57.8409 96.8544 57.9985 95.6895 58.1568 94.5234C58.3262 93.2755 58.4965 92.0262 58.4256 90.7629L58.4306 89.8346C58.5077 74.7361 58.3094 59.2909 53.8524 44.7486C53.8401 44.1676 52.1878 42.7764 52.1494 42.7334C51.9602 42.5217 51.7852 42.2978 51.6274 42.0628C51.5741 41.9834 51.5227 41.9027 51.4733 41.8209C51.5582 41.8401 51.6499 41.8591 51.7492 41.8774C52.156 41.9524 52.4462 41.9707 52.6747 41.9852C53.3387 42.0273 53.5181 42.0254 54.3974 43.1528C55.3428 44.5644 56.4551 45.4321 56.4134 45.3623C56.4942 45.3713 56.5754 45.3806 56.6569 45.3904C58.3102 45.5881 59.7859 45.901 60.9664 46.655C61.9389 47.2762 62.7138 48.1952 63.2222 49.5968L63.4835 50.2072C65.1489 54.1039 66.7743 58.0616 67.5196 62.25C67.9221 65.6201 68.8813 68.8367 70.4332 71.8505C73.0444 77.5755 75.2768 83.7695 74.9163 90.1464Z" fill="#FFCF77"/>
<path fill-rule="evenodd" clip-rule="evenodd" d="M53.9946 45.466C56.8381 55.8778 57.8152 67.7047 58.142 78.4543L58.1618 79.1123L58.2022 80.4821C56.9047 80.6766 55.1031 80.5366 53.7965 80.5555C52.2011 80.6533 50.214 80.5432 48.6568 80.803L48.5597 80.8197L48.4965 80.8323L48.4201 80.4689C46.0933 69.4485 42.7252 57.9884 40.6816 46.9046C41.0406 47.1175 41.5061 47.2017 41.8957 47.2998C44.5458 47.9447 47.663 47.823 50.3826 47.6668C51.9326 47.6544 53.2197 46.7986 53.9946 45.466Z" fill="#9DDADB"/>
<path fill-rule="evenodd" clip-rule="evenodd" d="M41.1859 36.8468C41.6704 36.5159 40.9806 39.369 40.9792 39.6415L40.9671 39.7012C40.8463 40.2822 40.6335 40.9574 40.144 41.3291C40.3697 43.1762 40.6508 45.018 40.9967 46.8455C44.0818 47.2477 47.1875 47.8284 50.3254 47.5355C51.9628 47.5497 53.0509 46.4399 53.7204 45.0573L53.7406 45.0153L53.6027 44.5208C51.5042 43.2337 49.9134 40.6246 50.8596 38.1626C50.921 38.0026 51.177 38.067 51.121 38.2342C50.7239 39.3456 50.8906 40.5984 51.4546 41.6191C51.8069 41.8068 52.1821 41.7935 52.5596 41.7821C54.3809 41.5159 55.427 43.5824 56.2109 44.8709L56.8971 44.9725C59.5223 45.3624 62.0545 45.8237 63.3507 48.5127L63.4692 48.7643C65.3032 52.6671 67.017 56.6816 68.0158 60.8866C68.5133 63.1001 68.6933 65.3809 69.4231 67.5402C70.9382 71.5487 73.0733 75.3155 74.2312 79.4653C74.9494 80.9317 76.9674 92.2822 74.9767 92.3199C74.2596 92.1052 73.529 91.9319 72.7907 91.8079C72.9046 91.8946 72.9461 92.042 72.9245 92.1931C72.6667 93.9997 72.6474 95.8299 72.6487 97.6513C72.7542 102.026 72.7397 111.269 66.2231 110.093C65.6889 115.441 63.8648 120.615 61.8371 125.566C60.6323 128.757 58.2957 131.669 58.1783 135.174C58.9856 135.186 58.6724 136.213 58.5733 136.708C58.3017 137.92 57.9485 139.113 57.591 140.301C56.3314 144.564 55.5792 148.97 54.5005 153.282C54.4422 153.489 54.344 153.631 54.2188 153.726C54.1975 154.175 53.5195 154.432 53.1359 154.283C53.1898 154.826 53.175 155.375 53.1824 155.92L53.1841 156.022L53.3016 156.02C53.8129 155.889 54.3297 156.717 54.474 157.141C54.9594 158.33 53.8339 159.202 53.7501 160.334C53.6738 161.409 53.5724 162.475 53.5262 163.553C54.9295 164.101 54.3088 165.935 52.9336 165.916C52.9979 166.585 53.0066 167.258 53.0348 167.929C53.6328 168.085 54.0812 168.589 54.3753 169.115C55.5839 169.198 56.6871 169.912 57.764 170.418C59.429 171.24 61.067 172.117 62.6737 173.048C64.2383 174.089 67.7197 175.271 66.1978 177.679C66.5808 178.009 66.3133 178.656 65.9642 178.925L65.9521 178.935C65.6053 179.206 65.1464 179.206 64.72 179.162C59.7671 179.286 54.5484 177.748 49.6233 176.744L49.2514 176.678C48.1733 176.485 47.0697 176.269 46.1118 175.743C45.7067 175.413 45.6075 174.608 46.0221 174.283C45.5969 172.746 45.9804 170.046 47.6626 169.452C47.8621 168.311 48.7847 167.494 49.9582 167.842C49.9639 167.111 50.0233 166.39 50.0365 165.659C49.4547 165.55 48.9181 165.324 48.6375 164.772C48.3291 164.221 48.6632 163.299 49.3643 163.329C49.3881 162.191 49.3237 161.073 49.3144 159.938L49.3134 159.869C49.3096 159.502 49.3245 159.096 49.1686 158.758C49.0084 158.41 48.5821 158.375 48.3929 158.045C47.9782 157.156 48.8083 156.111 49.6643 155.872C49.7717 155.276 49.716 154.646 49.8238 154.045C49.3679 154.018 48.9796 153.912 48.6495 153.654C48.4215 153.618 48.0179 153.72 47.9919 153.393C47.8992 152.054 47.2241 150.863 46.799 149.615C45.921 147.188 46.7178 144.653 47.023 142.198C47.1669 140.946 47.0152 139.689 46.8869 138.434C41.0937 147.505 33.6624 156.275 31.9455 167.218C31.8503 168.45 31.3473 169.463 32.2311 170.526C32.5277 170.612 32.7809 172.004 32.8952 172.355C33.8005 173.193 33.0116 174.687 32.2238 175.335C31.8467 175.986 31.3423 176.556 30.8701 177.139L30.7181 177.394C29.7179 179.066 28.6509 180.742 27.2948 182.143C25.0157 183.833 21.1912 183.352 18.5067 183.048L18.2681 183.009C17.709 182.916 17.09 182.78 16.7682 182.282C16.4887 181.851 16.5261 181.291 16.8736 180.968C16.5288 179.974 17.3145 178.999 18.0533 178.389C20.9174 175.851 23.3861 172.866 25.3086 169.557C26.0456 164.207 26.8024 158.857 27.6218 153.519C28.2831 149.101 29.2905 144.679 31.4175 140.716L31.939 139.725C32.8208 138.046 33.666 136.371 34.1683 134.521C35.3396 130.161 35.0591 125.595 34.8969 121.132C34.6882 114.164 34.1915 107.195 34.2562 100.222C32.9443 100.084 29.3874 100.169 28.8273 98.8213C28.6438 97.5368 29.0739 96.23 29.1712 94.9473C28.8942 94.753 28.6238 94.5496 28.3606 94.3397C27.8728 94.7036 27.3694 95.0472 26.8521 95.3666C25.6148 96.257 24.658 96.3995 23.8923 94.9359C21.6767 91.4344 19.5391 87.8825 17.5221 84.2628C15.6513 80.7908 13.3326 77.3245 12.8577 73.3272C12.1675 66.132 20.6109 54.6162 24.8383 48.7701C27.4362 45.6279 30.7967 42.2815 35.0894 42.0353L35.2197 42.0288C35.7954 41.9999 36.632 42.0631 37.1119 41.6738C37.2026 40.3749 38.5357 40.3814 39.5267 40.1666C39.7321 40.0102 40.0435 39.9731 40.306 39.9856C40.6617 38.9643 40.7424 37.835 41.1859 36.8468ZM28.9466 170.483C27.8594 169.918 26.562 169.872 25.4183 170.32C24 172.948 22.1834 175.347 20.1206 177.501C19.3669 178.553 16.5379 179.939 17.9491 181.358L18.1401 181.393C20.3064 181.787 22.5057 182.098 24.7131 181.92C26.1553 181.521 27.3194 180.452 28.2366 179.298C29.3752 177.822 30.3162 176.198 31.3578 174.652C32.2931 173.067 32.7862 173.046 32.0528 171.163C32.0515 171.2 32.0426 171.237 32.0238 171.275C31.7649 171.797 30.97 171.749 30.5213 171.552C29.9366 171.296 29.5114 170.781 28.9466 170.483ZM18.6736 181.845L18.7064 181.86L18.7398 181.875L18.7886 181.876L18.6736 181.845ZM59.9012 172.384C58.2881 171.663 55.3329 169.561 53.6852 169.88C52.4684 170.253 51.3466 170.918 50.0496 171.015L49.9939 171.017C49.0681 171.056 47.4226 171.365 47.0748 170.276C46.6142 171.156 46.4627 172.246 46.4696 173.241C46.4504 174.09 46.839 174.761 47.7408 174.83L48.5759 175.04C53.8671 176.368 59.2077 177.635 64.6604 178.029C66.0917 177.135 66.1269 175.96 64.6092 175.144C63.0766 174.164 61.4994 173.252 59.9012 172.384ZM28.7377 151.888C27.79 157.817 27.1538 163.779 26.2361 169.711C29.439 168.91 30.3797 171.782 31.5722 170.981C30.7381 169.883 30.838 169.056 31.085 167.779C31.5745 163.477 33.1769 159.384 35.1638 155.564C35.3902 155.128 35.6226 154.694 35.8581 154.261C33.3033 154.494 30.5534 153.766 28.7377 151.888ZM48.4695 168.795C48.2501 169.135 48.1631 169.545 48.0931 169.939C48.0569 170.142 48.0768 170.442 48.0046 170.67C49.379 170.711 50.7611 170.391 51.9996 169.802L51.9392 169.798C50.9298 169.736 48.844 169.877 48.4695 168.795ZM47.615 169.672C47.4813 169.767 47.3656 169.877 47.2657 169.999C47.2319 170.189 47.3301 170.395 47.4891 170.513C47.5209 170.235 47.5596 169.948 47.615 169.672ZM50.2996 165.702C50.3038 166.56 50.356 167.406 50.3465 168.263C50.3451 168.561 50.4334 168.936 50.2514 169.189L50.5406 169.219C51.2655 169.295 52.005 169.357 52.7295 169.275C52.7529 168.159 52.7535 167.037 52.827 165.922C51.9335 165.916 51.179 165.766 50.2996 165.702ZM53.0679 169.119C53.0667 169.154 53.0661 169.19 53.0674 169.223C53.1715 169.204 53.2751 169.181 53.3774 169.154C53.2932 169.145 53.2075 169.159 53.1246 169.131C53.1054 169.128 53.086 169.126 53.0679 169.119ZM49.9473 168.986C49.8557 169.09 49.6772 169.108 49.5643 169.039C49.5414 169.044 49.5185 169.047 49.4945 169.048C49.4878 169.048 49.4806 169.048 49.474 169.048L49.5524 169.067C49.716 169.108 49.8427 169.134 50.0106 169.158C49.981 169.104 49.9612 169.047 49.9473 168.986ZM53.7074 168.982C53.6864 169.021 53.6575 169.053 53.622 169.08L53.7029 169.053C53.7163 169.049 53.7297 169.044 53.743 169.039C53.7322 169.019 53.7201 169 53.7074 168.982ZM48.9699 168.746C48.9851 168.781 49.019 168.836 49.0579 168.864C49.0235 168.829 48.9934 168.789 48.9699 168.746ZM53.045 168.193C53.0456 168.214 53.0462 168.234 53.0475 168.256C53.0585 168.244 53.0716 168.233 53.0872 168.226C53.0727 168.215 53.0583 168.204 53.045 168.193ZM49.3601 163.517C48.6864 163.735 48.9224 164.581 49.4324 164.858C49.987 165.224 50.8247 165.167 51.4613 165.221C52.113 165.235 52.8673 165.5 53.4539 165.12C53.7599 164.914 53.7626 164.445 53.4389 164.265C53.4328 164.279 53.4263 164.293 53.4196 164.307C53.4239 164.34 53.4208 164.377 53.4063 164.421C53.0368 165.086 50.7175 164.702 50.1293 164.372L50.0838 164.353C49.6855 164.183 49.3119 164.105 49.3601 163.517ZM50.184 153.737C50.3298 154.391 50.2821 155.072 50.3742 155.727C50.4321 155.918 50.358 156.044 50.2394 156.109C51.0048 156.338 51.7762 156.451 52.5735 156.273C52.4871 155.507 52.7051 154.652 52.8156 153.882L50.184 153.737ZM53.1064 153.898C53.1193 153.996 53.1176 154.103 53.1287 154.204C53.1303 154.202 53.1319 154.2 53.1339 154.198L53.1372 154.195C53.2335 154.111 53.3209 154.004 53.413 153.911C53.3119 153.909 53.2083 153.903 53.1064 153.898ZM49.1156 134.059C48.6278 135.221 48.0774 136.352 47.4602 137.453L47.4853 137.713C47.6485 139.417 47.7714 141.124 47.4947 142.825L47.4687 142.971C47.0422 145.355 46.5105 147.837 47.5451 150.145L47.5921 150.266C47.9618 151.213 48.3509 152.153 48.4508 153.171C50.1321 153.291 51.8189 153.459 53.5027 153.518C53.9381 153.592 54.1498 153.343 54.1886 152.934C55.5021 147.43 56.6543 141.888 58.0777 136.411L58.0925 136.383C58.2468 136.088 58.3625 135.749 58.0758 135.645C57.535 135.551 57.0046 136.129 56.4909 136.277C53.734 137.364 51.6458 134.477 49.1156 134.059ZM49.0506 136.301C50.7248 138.778 49.8139 142.541 49.6216 145.483C49.4793 146.567 49.6464 147.677 49.533 148.755C49.5173 148.839 49.3842 148.854 49.3474 148.779C48.9528 147.786 49.1148 146.644 49.1494 145.6C49.3957 142.51 50.0931 139.321 49.0506 136.301ZM53.945 102.372C53.9387 102.332 53.882 102.346 53.8785 102.381C53.8605 109.812 53.3936 117.221 52.6553 124.615C52.645 124.775 52.9072 124.813 52.9381 124.653C53.4692 121.907 53.6836 119.109 53.8634 116.32L53.8836 116.004C54.1175 112.259 54.1917 108.503 54.0912 104.751C54.0693 103.963 54.0662 103.152 53.945 102.372ZM69.1269 91.5492C69.0619 91.6263 68.9909 91.6726 68.9185 91.696C68.9191 93.4324 68.5687 95.1411 67.6083 96.6452C67.1865 97.2026 66.9599 97.8464 66.7578 98.509C66.8159 98.6888 66.7429 98.8956 66.6073 98.9994C65.7196 101.697 65.6282 104.587 65.9557 107.39C66.954 105.925 67.3499 104.177 67.6292 102.454C67.6443 102.367 67.7876 102.369 67.8033 102.454C68.1345 104.297 67.5732 106.137 66.8482 107.821C66.4461 108.161 66.5324 108.932 66.4856 109.414C73.8443 110.485 71.285 96.3533 72.2277 92.0011C72.2452 91.8807 72.3469 91.7942 72.4625 91.7569C71.3587 91.5891 70.2406 91.5763 69.1269 91.5492ZM39.3539 40.4772L39.2264 40.5093C37.8837 40.8447 37.5278 40.8523 37.4424 42.4313C37.1082 44.6589 35.8745 46.6043 35.3198 48.7588C35.098 49.5198 35.3321 50.922 36.3844 50.7171C36.7252 50.6124 36.9909 51.0714 36.7331 51.3157C35.9713 52.0359 35.2318 52.7789 34.4881 53.5177C37.4745 63.6012 41.3545 73.423 46.0799 82.8194C46.2673 83.1919 45.7054 83.5203 45.5193 83.1467C40.8207 73.72 36.9136 63.9013 33.8811 53.8155L33.7894 53.5098C33.6556 53.1387 35.3679 51.8081 35.6798 51.3735C32.5571 49.8694 36.9059 44.6019 37.033 42.0703C36.1285 42.4241 35.1261 42.3028 34.1821 42.4572C32.3682 42.7742 30.7763 43.8241 29.3612 44.9544C23.6137 50.0318 19.94 57.0614 16.2657 63.6867C13.7632 68.0108 12.5571 73.2944 15.0681 77.8933C17.9815 83.7888 21.3624 89.472 24.9353 94.9889C25.3283 95.4988 25.9314 94.9127 26.345 94.6976C28.7217 93.2693 30.7827 91.3254 32.3677 89.0524C28.2117 83.8408 24.3454 78.1461 22.1909 71.8045C22.0188 70.2618 24.1806 68.4749 24.9697 67.1341C26.7116 64.7301 28.3392 62.2445 29.8932 59.7164C29.8444 59.4666 29.9477 59.1926 30.2124 59.1996L30.3662 58.9431C31.553 56.9698 31.6851 56.8932 30.5069 59.3073C31.1047 68.2127 31.0053 77.2899 31.2638 86.2519C31.963 87.1771 32.6827 88.0874 33.4191 88.9832C35.8085 87.3369 38.6188 86.2624 41.5051 85.9299L41.6532 85.9152C42.8748 85.7903 44.9408 85.5296 45.1032 87.1387C44.8854 89.1086 40.8643 87.9902 39.564 89.1078C41.6848 89.9621 44.1153 90.2037 46.0624 91.4928C46.687 91.8562 47.9113 93.0191 46.7152 93.4631C46.1932 93.5083 45.6543 93.304 45.1327 93.2603C45.7196 93.4577 46.2595 93.7935 46.6033 94.3187C46.8507 94.679 47.0314 95.4262 46.44 95.581C45.0917 95.6174 43.7492 95.1805 42.4215 94.9599L42.5395 95.008C43.5078 95.4051 45.012 96.116 43.7084 97.1669C42.4031 97.842 40.8232 96.6929 39.5232 96.3857C36.0199 95.5722 33.432 97.8043 29.8414 95.3866C29.7406 96.4514 29.4184 97.547 29.5174 98.6132C30.3811 99.4207 33.0689 99.3939 34.2713 99.5005L34.2699 99.4596C34.2524 98.8049 34.4268 98.8718 34.4598 99.5084C37.5036 99.6017 40.5546 99.545 43.5923 99.3267C44.8959 99.2305 46.1973 99.1006 47.4936 98.9321L47.7366 98.9001C48.4027 98.8111 49.0988 98.7521 49.7528 98.5932C50.4219 98.5036 50.4228 97.7892 50.3518 97.2648C49.4334 77.8741 41.5588 59.6411 39.3539 40.4772ZM51.731 42.0787C51.8858 42.3085 52.0574 42.5281 52.2429 42.7357C52.5284 42.294 53.2232 42.0437 53.4209 42.7032C53.6436 43.3812 53.9617 44.0774 53.9712 44.7957C58.5225 59.6464 58.6383 75.438 58.5496 90.8423C58.6859 93.2859 57.9287 95.6772 57.9987 98.1077C60.4919 98.4663 63.0212 98.497 65.5245 98.2317C65.5986 98.0373 65.6823 97.8454 65.7772 97.6576C69.5242 93.0858 67.5378 87.3551 65.7329 82.4025C64.6418 82.4477 63.5442 82.3798 62.4521 82.3923C62.7893 83.4376 62.8766 84.5434 63.0561 85.6243C63.1784 86.3944 63.3344 87.1587 63.5137 87.9176L63.5619 88.1199C63.6295 88.3997 63.7192 88.7016 63.621 88.9791C63.5246 89.2528 63.1922 89.3635 62.9717 89.1505C62.5745 88.6971 62.6171 88.0215 62.4888 87.4587L62.4651 87.2819C62.2464 85.6683 61.9584 83.9919 62.3581 82.3923C61.9655 82.3069 60.8931 82.6177 60.8368 82.0896C60.8534 81.218 60.2214 79.3281 60.9249 78.7536C61.3434 78.4341 62.063 78.5351 62.5538 78.5154C63.1212 78.4924 63.6878 78.4714 64.2545 78.475C59.7003 67.4606 60.9669 64.0689 61.4291 53.1068L61.4428 52.7723C61.4416 52.7007 61.5578 52.6826 61.5705 52.7554C62.2668 57.2456 61.3386 61.7922 61.7783 66.296C62.5594 74.855 67.9775 82.2028 68.8836 90.7202C70.8376 90.4941 72.8137 90.7713 74.7075 91.2629C74.7473 90.917 74.778 90.5698 74.7997 90.222C75.159 83.8653 72.9305 77.6899 70.3297 71.9886C68.7711 68.9608 67.8078 65.7316 67.4047 62.3534C66.6215 57.9545 64.8649 53.8099 63.1138 49.724C62.0071 46.6676 59.6139 45.9473 56.6462 45.5923C57.6471 47.2528 58.6419 48.917 59.635 50.5823C59.8567 51.0856 59.1776 51.446 58.881 51.7555C62.5265 53.7465 60.3979 59.8893 60.4733 63.3335C60.2026 66.4961 60.1006 69.6795 59.6236 72.8208C59.5886 73.038 59.255 72.9748 59.2519 72.7702C59.2959 68.0628 59.8567 63.3737 60.1029 58.6743L60.1328 58.3317C60.3247 56.1065 60.5121 52.8967 57.8392 52.2856C57.4785 52.2272 57.4508 51.6905 57.7404 51.5294C58.1259 51.3145 58.4636 51.0516 58.766 50.7399C57.2409 48.2881 55.9107 45.7068 54.306 43.3092L54.239 43.2238C53.1678 41.8665 53.2423 42.3571 51.731 42.0787ZM44.3643 87.0194C44.0679 86.1503 41.2081 86.717 40.4433 86.8108C37.6261 87.3438 34.791 88.5916 32.6453 90.5133C32.5128 90.6317 32.3563 90.6299 32.2328 90.5656C31.271 91.7942 30.1621 92.9077 28.9448 93.8866C29.1676 94.0617 29.3964 94.2326 29.6319 94.395C29.7445 94.407 29.8463 94.4654 29.8921 94.5707C33.2408 96.9984 35.705 95.1045 39.1835 95.5424C40.4825 95.804 41.6787 96.6311 43.0171 96.6656C43.9993 96.4421 43.1344 96.0311 42.6756 95.872C41.3598 95.2433 40.0115 94.6856 38.6674 94.1207C38.2501 93.9456 38.3934 93.3145 38.8595 93.4246C39.6755 93.6171 40.4939 93.8006 41.3128 93.9799C42.8877 94.3024 44.5003 94.7147 46.092 94.8704C45.7385 93.8868 41.9838 92.8227 40.8931 92.4326C40.4805 92.2366 39.305 92.2751 39.4394 91.6346C39.5479 91.0404 40.7995 91.7211 41.216 91.77C42.9186 92.2014 44.6562 92.4648 46.3912 92.7273C44.5275 90.8568 41.6393 90.6944 39.2594 89.8189L39.1807 89.8007C38.7636 89.7016 38.2063 89.5184 38.5244 89.0526L38.535 89.0375C39.7591 87.2322 44.5682 88.1474 44.3643 87.0194ZM40.8431 76.9733C41.7106 76.2585 42.1764 77.7251 42.121 78.4052C42.162 78.9696 42.2059 79.5345 42.2427 80.0995C42.1888 80.5417 42.6593 82.1515 42.0301 82.1661C39.2802 82.0275 36.535 82.0607 33.7841 81.8965C33.7805 82.4513 33.7534 83.006 33.7817 83.5625C33.7668 84.2571 34.0081 84.9526 33.8672 85.6387C33.7811 85.9552 33.3517 85.9973 33.1842 85.7278C32.6815 84.5449 33.0274 83.0189 33.383 81.822C31.3052 81.2935 32.3065 79.6191 32.3069 78.1561C32.3039 78.1176 32.3424 78.0978 32.3738 78.105C32.8888 78.825 32.2181 79.7857 32.5122 80.5687C32.8163 81.4246 34.1072 81.3459 34.8365 81.36L34.8584 81.3605C37.1297 81.3998 39.3994 81.4935 41.6706 81.5374C41.5736 80.7721 41.5472 79.9882 41.4888 79.2229C41.4152 78.6736 41.5215 78.0217 41.2418 77.5292C39.9788 77.9393 38.6641 78.1036 37.3365 78.0774C35.754 78.1201 34.0896 78.2631 32.5429 78.0737C34.7611 77.7313 37.2115 77.7809 39.4719 77.3463C39.9212 77.2299 40.3796 76.9943 40.8431 76.9733ZM29.9252 60.4522C28.5568 63.0646 26.9839 65.5518 25.3081 67.9727C24.9492 68.4902 24.5806 69.0003 24.2061 69.5069L24.1368 69.5957C23.3885 70.5468 22.6113 71.3359 23.3184 72.5982C25.1716 77.1014 27.6516 81.331 30.5255 85.2561L30.4763 83.001C30.3134 75.4842 30.1592 67.9668 29.9252 60.4522ZM64.305 78.6073C60.8702 79.3288 60.8045 77.9782 61.3783 81.7978C62.7564 81.8072 64.1335 81.7762 65.5119 81.7985C65.118 80.7318 64.7098 79.6698 64.305 78.6073ZM53.9917 45.9419C53.2168 47.2745 51.9297 48.1302 50.3797 48.1427C47.6601 48.2988 44.9042 48.1197 42.2541 47.4748C41.8645 47.3768 41.399 47.2925 41.04 47.0796C43.0836 58.1634 46.3914 68.9618 48.7183 79.9822L48.7946 80.3455L48.8579 80.3329C50.4419 80.0518 52.1649 80.1686 53.7935 80.0687C55.1002 80.0498 56.42 80.1898 57.7175 79.9953L57.6771 78.6256C57.3498 67.6615 56.8932 56.5662 53.9917 45.9419ZM52.8553 42.7736C52.7115 42.7716 52.4913 42.8572 52.3447 42.847C52.6434 43.1665 52.974 43.4547 53.322 43.7056C53.1627 43.4072 53.0385 43.0493 52.8553 42.7736Z" fill="black"/>
<path fill-rule="evenodd" clip-rule="evenodd" d="M58.1014 22.5389C56.9173 15.3687 47.8756 14.076 41.9838 15.5851C41.8752 14.2059 41.0073 12.9872 39.9243 12.1856C35.3238 8.87123 29.8773 14.4984 30.9677 19.3481C31.1633 20.8172 32.3363 22.4937 33.9775 22.2423C31.9146 26.151 31.1084 34.0326 35.6537 36.469C36.0922 36.7815 36.165 37.416 36.5025 37.8229C37.0504 38.4791 39.3911 39.315 40.6573 38.6451C41.0552 39.0111 41.5143 39.3673 42.051 39.494C44.8236 41.7159 48.8755 42.2173 52.2517 41.3005C54.3317 40.947 56.488 40.0076 57.5582 38.0884C58.4649 36.6276 58.0471 34.9161 57.6313 33.3701C57.4517 32.5196 57.3347 31.6623 57.2627 30.7978C57.4102 30.6255 57.4184 30.3861 57.4552 30.1682C57.6149 29.3956 57.9638 28.6786 58.1383 27.9083C58.5287 26.1596 58.4609 24.2912 58.1014 22.5389Z" fill="#D08B5B"/>
<path fill-rule="evenodd" clip-rule="evenodd" d="M32.3923 14.7687C33.4152 12.8185 35.4204 11.7182 37.4258 11.8691C39.4775 12.0235 41.0477 13.4397 41.4112 15.7263L41.4219 15.7959L41.4437 15.9443L41.4238 15.9511L41.4334 15.968L41.4506 15.9968C41.471 16.03 41.496 16.0678 41.5301 16.1171L41.5758 16.1823L41.7293 16.398L41.7402 16.4135L41.7729 16.4606L41.8388 16.4373C45.0536 15.3134 48.6343 15.325 51.8351 16.52L51.932 16.5566L52.0212 16.5911L52.0716 16.6042C54.034 17.1237 55.6021 18.3732 56.6756 20.1622L56.708 20.2166L56.7407 20.2724C57.7206 21.9572 58.223 24.0398 58.1877 26.1306L58.1864 26.1946L58.1859 26.2048L58.1805 26.2678C58.1339 26.7696 58.0077 27.2181 57.7468 27.902L57.7135 27.9887L57.6618 28.1211L57.5009 28.529L57.4615 28.6305L57 29.8437L57.0855 28.6261C57.095 28.4907 57.1003 28.3718 57.1049 28.1903L57.1056 28.1576L57.116 27.6423L57.1191 27.5272C57.1207 27.4737 57.1224 27.4253 57.1245 27.3782L57.1278 27.3079L57.134 27.1987L57.1354 27.1759L57.1325 27.1514C57.0342 26.3775 56.6794 25.7168 56.0688 25.0908L56.0369 25.0585L56.0047 25.0262L55.9661 24.9881C55.5161 24.5476 55.0613 24.2108 54.1189 23.5927L54.0783 23.566L53.5307 23.2094L53.3257 23.0748C52.8738 22.7768 52.5985 22.5839 52.3073 22.3588L52.2446 22.31L52.1955 22.2714C51.6913 21.8719 51.2976 21.4793 50.9952 21.0559L50.9671 21.0161L50.9075 20.9306L50.9501 20.8394L50.9494 20.8406L50.9494 20.8402L50.9514 20.8305L50.9543 20.8142L50.9572 20.7944C50.9626 20.7552 50.9672 20.7041 50.9704 20.6464C50.9716 20.6255 50.9726 20.6041 50.9734 20.5825L50.9744 20.5499L50.9749 20.5217L50.9636 20.5549C50.3799 22.2418 48.9966 23.6493 47.0466 24.6879L46.9874 24.7193L46.9204 24.7543C44.9985 25.75 42.6476 26.3217 40.6093 26.3379L40.5436 26.3382L40.4787 26.3383L40.4286 26.297C40.2416 26.1427 39.8974 26.3348 39.96 26.6097C40.5393 29.1522 40.6608 31.7838 40.307 34.3196L40.2945 34.408L40.2931 34.4164L40.2796 34.4881C40.2679 34.5521 40.2567 34.6176 40.2446 34.6931L40.2255 34.8149L40.1518 35.3086L40.1183 35.5201L40.1038 35.6058C39.9792 36.3256 39.8214 36.8152 39.5346 37.2375L39.5071 37.2773L39.4789 37.3043L39.4514 37.332C39.3949 37.3902 39.3594 37.4374 39.342 37.4703L39.3383 37.4777L39.3362 37.4822L39.3412 37.4842C39.4324 37.5169 39.619 37.5103 39.7744 37.4676L39.7936 37.462L39.8118 37.4564L39.9377 37.4155L40.0254 37.539L40.0516 37.5754C40.0998 37.6421 40.15 37.7092 40.2129 37.7913L40.2869 37.8875L40.4581 38.1076L40.301 38.2162C39.7709 38.5829 39.0298 38.51 38.2424 38.1663L38.2117 38.1527L38.2005 38.1473C37.8251 37.9483 37.5792 37.7079 37.1742 37.1955L37.1267 37.1352L36.9464 36.9037L36.8778 36.817C36.8298 36.7571 36.7889 36.7074 36.7478 36.6594L36.7341 36.6435L36.6861 36.5886L36.6755 36.5674C36.4773 36.168 36.194 35.9023 35.6979 35.6166L35.628 35.5769L35.5832 35.5462C34.3245 34.6725 33.5817 33.2943 33.2693 31.5069C33.0251 30.1097 33.0504 28.5377 33.2741 26.7723L33.2849 26.6881L33.2964 26.6003C33.49 25.1145 33.9328 23.7272 34.6041 22.4643L34.639 22.399L34.6705 22.341L34.513 22.2159L34.4484 22.1656C34.3949 22.1245 34.3559 22.0962 34.3205 22.0729L34.3015 22.0606L34.2838 22.0497L34.279 22.0585L34.1589 22.0457C33.6515 21.9914 33.1513 21.772 32.744 21.4337L32.7105 21.4054L32.6779 21.3726C31.8908 20.5713 31.5042 19.4604 31.5039 18.1918C31.5036 17.0704 31.8109 15.8771 32.3365 14.8731L32.3625 14.8239L32.3923 14.7687Z" fill="#E8E1E1"/>
<path fill-rule="evenodd" clip-rule="evenodd" d="M58.0066 26.1906C57.9382 27.0552 57.5722 27.8331 57.2657 28.6388C57.2992 28.1621 57.2835 27.6659 57.3168 27.1709C56.9605 24.0711 52.7499 23.2567 51.1154 20.9128C51.1772 20.7804 51.1995 19.5969 50.9558 19.9297C50.0104 24.0717 44.391 26.1497 40.5436 26.1577C40.2527 25.9177 39.6756 26.1713 39.7846 26.6498C40.3599 29.175 40.4859 31.8165 40.1164 34.3823C39.9424 35.2883 39.913 36.3785 39.37 37.1592C38.7937 37.7079 39.4865 37.752 39.8678 37.6281C39.9741 37.7777 40.0863 37.923 40.199 38.0678C39.6513 38.4466 38.8521 38.24 38.2853 37.9878C37.6547 37.6537 37.2943 37.0061 36.8374 36.4871C36.5879 35.9844 36.2096 35.6955 35.7232 35.4233C33.0172 33.582 33.0871 29.5429 33.4756 26.6237C34.6075 17.9369 44.2378 13.7454 51.9665 16.7632C56.1404 17.8318 58.096 22.1523 58.0066 26.1906ZM32.8331 21.2726C31.1825 19.6269 31.5148 16.7498 32.5524 14.8526C34.6315 10.8886 40.5368 11.0174 41.2439 15.8222C38.2325 16.8551 35.6913 19.0698 34.1784 21.8662C33.6858 21.8135 33.2097 21.5939 32.8331 21.2726ZM58.1014 22.5403C56.9173 15.3701 47.8757 14.0773 41.9838 15.5866C41.8753 14.2073 41.0074 12.9886 39.9243 12.1869C35.3238 8.8726 29.8773 14.4997 30.9677 19.3495C31.1633 20.8186 32.3363 22.4951 33.9775 22.2436C31.9146 26.1523 31.1085 34.034 35.6537 36.4704C36.0922 36.7829 36.165 37.4174 36.5025 37.8242C37.0504 38.4805 39.3911 39.3164 40.6573 38.6465C40.9584 39.0163 42.6673 40.141 42.5427 39.0385C42.417 38.7415 42.0286 38.664 41.7699 38.5172C41.2263 38.2167 40.754 37.7933 40.383 37.2959C41.5485 34.0057 41.4597 30.3421 40.8067 26.9543C44.7086 26.7578 49.2999 25.0455 51.0209 21.2855C52.1843 24.0218 55.7922 24.3739 56.7036 27.4332C56.7586 29.04 56.4144 30.623 56.664 32.2306C56.7372 33.8052 57.5686 35.3693 57.0879 36.9336C55.7451 40.3448 50.911 40.8454 47.7172 40.7028C46.9586 40.6401 46.329 40.2296 45.7053 39.84C45.3315 39.6624 44.8866 40.0339 45.1156 40.4304C45.99 41.652 47.7886 41.7588 49.1696 41.7148C52.7538 41.5021 57.9336 40.4419 58.1197 36.0109C58.0015 34.2544 57.313 32.5735 57.2628 30.7992C57.4102 30.6269 57.4184 30.3875 57.4552 30.1695C57.6149 29.3969 57.9638 28.68 58.1383 27.9097C58.5287 26.1609 58.461 24.2927 58.1014 22.5403Z" fill="black"/>
<path fill-rule="evenodd" clip-rule="evenodd" d="M46.6737 33.9204C47.3315 33.5247 49.7899 33.8147 51.721 33.9204C53.2546 34.0043 54.3499 33.838 54.7005 34.0738C55.4925 34.6064 55.1078 37.1817 53.743 37.5339C52.3782 37.8861 47.3189 38.378 46.4466 37.5339C45.5743 36.6898 45.4937 34.6303 46.6737 33.9204Z" fill="white"/>
<path fill-rule="evenodd" clip-rule="evenodd" d="M47.5259 33.2392C48.5582 33.114 49.5588 33.4298 50.568 33.589C51.1008 33.6729 51.6343 33.7356 52.1735 33.759C52.282 33.7637 52.3905 33.7665 52.499 33.7687C52.5091 33.6732 52.5626 33.5856 52.6784 33.5331C52.9159 33.4255 53.106 33.377 53.3667 33.3874C53.6054 33.3968 53.8449 33.4213 54.08 33.4643C54.5067 33.5425 54.9354 33.7199 55.2476 34.0281C55.9701 34.7412 55.8601 35.8867 55.3018 36.6634C54.1485 38.2684 52.0435 38.3429 50.2406 38.322L50.0742 38.3198C48.4327 38.2964 46.0841 38.5409 45.3383 36.675C45.064 35.9888 45.1021 35.1935 45.4379 34.5354C45.8384 33.7504 46.6815 33.3416 47.5259 33.2392ZM52.6536 35.9116L52.6388 35.9122C51.882 35.9413 51.1253 35.9618 50.368 35.9752C50.3907 36.1695 50.4138 36.3639 50.4402 36.5577C50.461 36.7103 50.4832 36.8627 50.5063 37.0149C50.5161 37.0793 50.5521 37.1794 50.5419 37.2432L50.5382 37.2685C50.5771 37.286 50.6124 37.3143 50.6387 37.3554C50.6478 37.3696 50.6544 37.3839 50.661 37.3982C51.2489 37.4028 51.8816 37.3914 52.481 37.2846L52.4822 37.2716C52.4931 37.1951 52.5249 37.1437 52.5672 37.1083C52.6093 36.8644 52.6055 36.6045 52.6218 36.3625C52.6319 36.2121 52.6429 36.0619 52.6536 35.9116ZM49.7896 35.9855C49.2441 35.9948 48.6984 36.0019 48.1529 35.9953L47.9054 35.9915C47.9576 36.2717 48.0145 36.551 48.0618 36.8331C48.1112 37.1272 47.8521 37.3141 47.6279 37.3065C47.6531 37.3107 47.6782 37.3149 47.7034 37.3185C48.4039 37.4174 49.1312 37.3912 49.8421 37.3904C49.8038 37.1674 49.8193 36.9157 49.8136 36.7296L49.8125 36.7008C49.8016 36.4622 49.794 36.2239 49.7896 35.9855ZM46.0842 35.9341C46.1031 36.0798 46.1399 36.2224 46.195 36.3552C46.4279 36.9162 46.9617 37.178 47.5266 37.2882C47.4286 37.2544 47.3508 37.1732 47.3311 37.0341C47.2821 36.6881 47.2645 36.3364 47.2632 35.9851C46.8696 35.9815 46.4733 35.9731 46.0842 35.9341ZM54.7065 35.8143C54.4262 35.8804 54.1005 35.8501 53.8255 35.8626C53.5679 35.8743 53.3102 35.8845 53.0526 35.8949C53.0647 36.0706 53.0766 36.2462 53.0894 36.4218C53.106 36.6488 53.1076 36.8886 53.1511 37.1146C53.6695 36.9379 54.1341 36.6544 54.4826 36.201C54.5695 36.0881 54.6472 35.9556 54.7065 35.8143ZM47.4074 34.1596C46.9409 34.27 46.4993 34.5031 46.262 34.9297C46.1212 35.1828 46.0592 35.4827 46.0711 35.7783C46.4655 35.7325 46.8666 35.7151 47.2657 35.7007C47.2671 35.6289 47.2688 35.5572 47.2709 35.4856L47.2771 35.3021C47.288 34.9522 47.2934 34.5127 47.4074 34.1596ZM49.8223 34.2023L49.6169 34.1793C49.0464 34.1143 48.4763 34.0462 47.9058 34.0853C47.8232 34.091 47.7394 34.0999 47.6554 34.1122C47.7562 34.4758 47.7477 34.9027 47.7899 35.2626C47.8061 35.4017 47.8267 35.5397 47.8495 35.6772L47.9484 35.6725C48.5606 35.6394 49.1733 35.619 49.786 35.5947C49.7859 35.4798 49.7865 35.3648 49.7884 35.2498L49.7907 35.1348C49.7976 34.841 49.7786 34.51 49.8223 34.2023ZM52.6869 34.1557C52.0894 34.252 51.4719 34.2725 50.885 34.2733C50.6506 34.2736 50.4163 34.2592 50.1821 34.2384C50.1974 34.363 50.2053 34.489 50.2168 34.6118C50.2399 34.8601 50.2664 35.1079 50.2951 35.3555L50.3207 35.5722C51.0737 35.5381 51.8267 35.5012 52.5795 35.463L52.6857 35.4573L52.7155 35.0409C52.7358 34.7633 52.7581 34.4857 52.7896 34.2093L52.7659 34.2008C52.7382 34.1894 52.7119 34.1737 52.6869 34.1557ZM52.9464 34.259C52.9793 34.6516 52.9975 35.0459 53.0217 35.4391L53.518 35.4126C53.6007 35.4081 53.6835 35.4035 53.7662 35.3988C54.0878 35.3802 54.501 35.2829 54.819 35.3737C54.8432 35.0849 54.7606 34.8036 54.4998 34.6096C54.0418 34.2689 53.4587 34.3902 52.9464 34.259ZM51.2508 30.7495C51.9898 30.3266 53.844 29.8945 53.9615 31.2232C54.0155 31.8346 53.5605 32.3413 53.0292 32.5673L53.0092 32.5757C52.5109 32.7804 51.6276 33.0115 51.1964 32.5677C50.8375 32.1983 51.3135 31.5359 51.7595 31.8386C51.9887 31.994 52.4712 31.8795 52.7269 31.8055L52.7429 31.8008C53.0189 31.7198 53.3869 31.4604 53.2727 31.1209C53.1717 30.8206 52.742 30.7657 52.4729 30.756C52.0712 30.7416 51.6802 30.8348 51.2821 30.8651C51.2191 30.8699 51.1996 30.7787 51.2508 30.7495ZM54.3121 28.6129C55.3151 28.5659 55.9391 29.6601 55.7084 30.5566C55.6685 30.7113 55.4954 30.8631 55.3282 30.8457L55.2861 30.8419C55.2647 30.8398 55.2432 30.8371 55.2234 30.8317C55.0647 30.7877 54.9224 30.6228 54.9339 30.4518L54.937 30.402C54.9604 29.9785 54.9145 29.4905 54.4107 29.388C53.9834 29.301 53.7449 29.7118 53.7398 30.09C53.7388 30.1572 53.6633 30.204 53.6039 30.1679C53.295 29.9802 53.2415 29.6066 53.3595 29.2849C53.509 28.8773 53.8832 28.6329 54.3121 28.6129ZM46.8686 28.8475C47.5986 28.6042 48.3861 28.993 48.7395 29.6377C48.8635 29.6735 48.9873 29.769 48.9701 29.9152C48.9452 30.1255 48.9078 30.2581 48.7618 30.4176C48.5335 30.6671 48.1059 30.5396 48.011 30.2324L48.0069 30.2186C47.8991 29.8215 47.4617 29.5596 47.0632 29.6986C46.5977 29.8609 46.6112 30.3521 46.2847 30.6382C46.2463 30.6718 46.2003 30.6772 46.1543 30.655C45.8075 30.4875 45.8698 29.9836 45.9935 29.6952C46.1556 29.3167 46.4708 28.9801 46.8686 28.8475ZM45.8746 26.6331C46.466 26.0301 48.0084 25.4466 48.413 26.5601C48.4901 26.7722 48.326 27.0581 48.105 27.1021C47.7431 27.1741 47.422 27.0171 47.0625 27.0452C46.7714 27.0682 46.4678 27.1653 46.2352 27.3455C45.5907 27.8443 45.4489 28.6881 44.9998 29.3231C44.978 29.354 44.9355 29.341 44.9315 29.3046C44.8292 28.3802 45.2267 27.2934 45.8746 26.6331ZM53.5885 26.0395C53.981 25.901 54.4255 25.9128 54.8201 26.0357C55.2175 26.1595 55.5824 26.3946 55.8635 26.7018C55.9911 26.8413 56.1091 26.9952 56.2038 27.159C56.2541 27.2458 56.3069 27.4252 56.3641 27.532C56.6733 27.7103 56.8054 28.1167 56.5286 28.4059L56.5161 28.4186L56.4791 28.4553C56.3303 28.6024 56.1059 28.6662 55.9028 28.6074C55.4482 28.476 55.393 28.1183 55.2357 27.7387C55.1317 27.4879 54.9537 27.266 54.7378 27.1031C54.2275 26.718 53.3909 26.5953 52.7766 26.7768C52.7439 26.7865 52.7054 26.7448 52.7287 26.7146C52.8452 26.564 52.9122 26.4404 53.0681 26.3188C53.2263 26.1955 53.3989 26.1064 53.5885 26.0395Z" fill="black"/>
<path fill-rule="evenodd" clip-rule="evenodd" d="M59.1839 26.1251C59.1343 26.1169 59.0847 26.1091 59.035 26.1019C58.9963 26.0799 58.9509 26.063 58.898 26.0528C58.7772 26.0222 58.6573 26.0016 58.5376 25.9904C56.8194 25.6041 52.8444 26.1526 52.6804 27.6175C52.1332 27.8 51.6598 27.6366 51.0256 27.6528C50.5429 25.637 42.1973 25.9216 41.796 27.1369C41.7945 27.1364 41.7929 27.1361 41.7914 27.1356C41.4057 27.0164 40.8372 27.0451 40.3958 27.0262C39.4533 27.0065 38.5097 27.0904 37.5875 27.289C35.8607 27.5632 33.504 27.8842 34.7049 30.0385C34.7052 30.0389 34.7054 30.0393 34.7057 30.0397L34.7058 30.0395C34.9128 30.2514 35.2641 30.0808 35.2771 29.7938C34.8734 28.7732 35.7854 28.6507 36.487 28.3574C38.233 27.7307 40.0106 27.6438 41.8164 27.8377C41.9522 27.9975 42.1584 28.1368 42.3762 28.2097C43.5836 28.4099 42.9473 29.3047 43.7105 29.4348C43.5703 32.5539 47.3606 34.2564 49.5568 32.2061C50.4337 31.3496 50.6427 30.0808 50.846 28.9371C50.9535 28.913 51.0219 28.8542 51.0618 28.7765C51.3203 28.5187 51.4827 28.2805 51.9939 28.2097C52.5052 28.139 52.8987 28.281 52.9519 28.3245C52.9654 28.3515 52.9798 28.3786 52.9965 28.4057C53.0199 28.446 53.0517 28.4782 53.0878 28.5036C52.583 31.6095 54.9964 33.5737 57.4329 31.9628C58.4916 30.9679 58.7153 29.4446 58.7595 28.0851C58.903 27.9985 58.9939 27.8309 58.9442 27.62C58.8757 27.3295 59.0363 27.0778 59.2919 26.9515C59.6242 26.7874 59.5654 26.1883 59.1839 26.1251ZM48.7147 27.5986C48.4122 27.5322 48.2831 27.998 48.5865 28.0646C48.8013 28.1118 48.9834 28.2201 49.1064 28.4034L49.1194 28.4234C49.2844 28.6858 49.7018 28.4436 49.5356 28.1794C49.3486 27.8822 49.058 27.674 48.7147 27.5986ZM57.5723 27.3098C57.4657 27.2348 57.3043 27.2905 57.2424 27.3965C57.1743 27.5132 57.219 27.6432 57.3188 27.7196L57.329 27.7271C57.4206 27.7916 57.5098 27.9072 57.521 28.0256L57.5219 28.0404C57.5339 28.3504 58.0161 28.352 58.0041 28.0404C57.9923 27.7356 57.8157 27.481 57.5723 27.3098Z" fill="black"/>
</svg>
