<?xml version="1.0" standalone="no"?>
<!DOCTYPE svg PUBLIC "-//W3C//DTD SVG 20010904//EN"
 "http://www.w3.org/TR/2001/REC-SVG-20010904/DTD/svg10.dtd">
<svg version="1.0" xmlns="http://www.w3.org/2000/svg"
 width="50.000000pt" height="50.000000pt" viewBox="0 0 50.000000 50.000000"
 preserveAspectRatio="xMidYMid meet">

<g transform="translate(0.000000,50.000000) scale(0.100000,-0.100000)"
fill="#000000" stroke="black" stroke-width="20">
<path d="M62 437 c-21 -22 -22 -33 -22 -188 0 -221 -12 -209 211 -209 221 0
209 -12 209 211 0 221 12 209 -211 209 -160 0 -166 -1 -187 -23z m362 -13 c24
-23 24 -325 0 -348 -23 -24 -325 -24 -348 0 -24 23 -24 325 0 348 23 24 325
24 348 0z" />
<path d="M180 394 c0 -3 28 -37 61 -75 l62 -69 -62 -69 c-33 -38 -61 -72 -61
-75 0 -18 24 2 84 69 l67 75 -67 75 c-60 67 -84 87 -84 69z"/>
</g>
</svg>
