<svg width="53"  viewBox="0 0 53 53" fill="black" xmlns="http://www.w3.org/2000/svg">
<path d="M40.3297 5.30005C39.4256 5.30005 38.5214 5.64532 37.8316 6.3352L33.5667 10.6L42.4 19.4334L46.6649 15.1685C48.0447 13.7888 48.0447 11.552 46.6649 10.1722L42.8279 6.3352C42.138 5.64532 41.2338 5.30005 40.3297 5.30005ZM30.0334 14.1334L9.2923 34.8745C9.2923 34.8745 10.9137 34.7292 11.5179 35.3334C12.1221 35.9376 11.6247 39.8914 12.3667 40.6334C13.1087 41.3754 17.0376 40.8531 17.6012 41.4166C18.1647 41.9802 18.1256 43.7078 18.1256 43.7078L38.8667 22.9667L30.0334 14.1334ZM7.06672 40.6334L5.40011 45.3537C5.3346 45.54 5.30077 45.7359 5.30005 45.9334C5.30005 46.4019 5.48618 46.8513 5.81749 47.1826C6.14881 47.5139 6.59817 47.7 7.06672 47.7C7.26418 47.6993 7.46012 47.6655 7.6464 47.6C7.65217 47.5977 7.65792 47.5954 7.66366 47.5931L7.70851 47.5793C7.71197 47.577 7.71542 47.5747 7.71886 47.5724L12.3667 45.9334L9.71672 43.2834L7.06672 40.6334Z" fill="black"/>
</svg>
