<svg width="75" height="75" viewBox="0 0 75 75" fill="none" xmlns="http://www.w3.org/2000/svg">
<rect x="0.57959" y="0.735352" width="73.6112" height="73.6112" rx="20" fill="#231F20" fill-opacity="0.52"/>
<path d="M21.6606 27.6913C21.6606 30.3178 22.3518 32.5295 23.043 32.5295C23.8724 32.5295 24.4254 31.4237 24.4254 30.1795C24.4254 28.2442 24.9783 28.5207 27.8813 31.1472C32.3049 35.4325 34.2402 33.4972 29.9549 29.0736C27.3284 26.1706 27.0519 25.6177 28.9872 25.6177C30.2313 25.6177 31.3372 24.9265 31.3372 24.2353C31.3372 23.4059 29.1254 22.853 26.4989 22.853C21.9371 22.853 21.6606 23.1294 21.6606 27.6913Z" fill="white"/>
<path d="M42.3962 24.2353C42.3962 24.9265 43.5021 25.6177 44.7463 25.6177C46.6816 25.6177 46.4051 26.1706 43.7786 29.0736C39.4933 33.4972 41.4286 35.4325 45.8522 31.1472C48.7551 28.5207 49.3081 28.2442 49.3081 30.1795C49.3081 31.4237 49.9993 32.5295 50.6905 32.5295C51.5199 32.5295 52.0728 30.3178 52.0728 27.6913C52.0728 23.1294 51.7964 22.853 47.2345 22.853C44.608 22.853 42.3962 23.4059 42.3962 24.2353Z" fill="white"/>
<path d="M27.4666 45.2474C24.8401 47.8739 24.4254 48.0121 24.4254 45.9386C24.4254 44.6944 23.8724 43.5885 23.043 43.5885C22.3518 43.5885 21.6606 45.8003 21.6606 48.4268C21.6606 52.9887 21.9371 53.2651 26.4989 53.2651C29.1254 53.2651 31.3372 52.574 31.3372 51.8828C31.3372 51.0533 30.2313 50.5004 28.9872 50.5004C27.0519 50.5004 27.1901 50.0857 29.6784 47.3209C34.9314 41.7915 32.8578 39.9944 27.4666 45.2474Z" fill="white"/>
<path d="M41.0137 43.1738C41.0137 43.7268 42.396 45.5239 44.0549 47.3209C46.5432 50.0857 46.6814 50.5004 44.7461 50.5004C43.5019 50.5004 42.396 51.0533 42.396 51.8828C42.396 52.574 44.6078 53.2651 47.2343 53.2651C51.7962 53.2651 52.0726 52.9887 52.0726 48.4268C52.0726 45.8003 51.5197 43.5885 50.6903 43.5885C49.9991 43.5885 49.3079 44.6944 49.3079 45.9386C49.3079 47.8739 48.8932 47.7357 46.1284 45.2474C42.8108 42.2062 41.0137 41.3768 41.0137 43.1738Z" fill="white"/>
</svg>
