<svg width="32" viewBox="0 0 32 32" fill="black" xmlns="http://www.w3.org/2000/svg">
<path d="M11.9466 4.47987C10.4533 5.9732 10.2399 8.5332 11.6266 8.5332C12.1599 8.5332 12.7999 7.78654 13.2266 6.9332C13.9733 4.79987 16.7466 4.90654 18.0266 7.14654C18.9866 8.74654 19.3066 8.8532 20.1599 7.5732C21.0133 6.2932 21.4399 6.18654 22.8266 7.46654C25.0666 9.27987 26.56 7.8932 24.4266 5.9732C22.2933 3.83987 13.6533 2.7732 11.9466 4.47987Z" fill="black"/>
<path d="M4.69334 7.78662C4.37334 8.63995 4.26667 13.3333 4.48001 18.24L4.80001 27.2H16H27.2V19.2V11.2L16.8533 10.88C11.0933 10.7733 6.40001 10.1333 6.40001 9.59995C6.40001 8.95995 6.93334 8.53329 7.46667 8.53329C8.10667 8.53329 8.53334 7.99995 8.53334 7.46662C8.53334 5.86662 5.33334 6.18662 4.69334 7.78662ZM25.1733 18.24C26.24 20.0533 23.7867 22.08 22.2933 20.5866C21.0133 19.3066 21.8667 17.0666 23.4667 17.0666C24 17.0666 24.7467 17.6 25.1733 18.24Z" fill="black"/>
</svg>
