<?xml version="1.0" standalone="no"?>
<!DOCTYPE svg PUBLIC "-//W3C//DTD SVG 20010904//EN"
 "http://www.w3.org/TR/2001/REC-SVG-20010904/DTD/svg10.dtd">
<svg version="1.0" xmlns="http://www.w3.org/2000/svg"
 width="50.000000pt" height="50.000000pt" viewBox="0 0 50.000000 50.000000"
 preserveAspectRatio="xMidYMid meet">

<g transform="translate(0.000000,50.000000) scale(0.100000,-0.100000)"
fill="#000000" stroke="none">
<path d="M220 415 c-9 -11 -35 -15 -106 -15 -56 0 -94 -4 -94 -10 0 -6 38 -10
94 -10 71 0 97 -4 106 -15 7 -8 20 -15 30 -15 10 0 23 7 30 15 9 11 35 15 106
15 56 0 94 4 94 10 0 6 -38 10 -94 10 -71 0 -97 4 -106 15 -7 8 -20 15 -30 15
-10 0 -23 -7 -30 -15z m46 -16 c10 -17 -13 -36 -27 -22 -12 12 -4 33 11 33 5
0 12 -5 16 -11z"/>
<path d="M360 275 c-10 -12 -43 -15 -176 -15 -103 0 -164 -4 -164 -10 0 -6 61
-10 164 -10 133 0 166 -3 176 -15 7 -8 20 -15 30 -15 10 0 23 7 30 15 7 8 23
15 36 15 13 0 24 5 24 10 0 6 -11 10 -24 10 -13 0 -29 7 -36 15 -7 8 -20 15
-30 15 -10 0 -23 -7 -30 -15z m46 -16 c10 -17 -13 -36 -27 -22 -12 12 -4 33
11 33 5 0 12 -5 16 -11z"/>
<path d="M110 135 c-7 -9 -29 -15 -51 -15 -22 0 -39 -4 -39 -10 0 -5 17 -10
39 -10 22 0 44 -6 51 -15 16 -19 44 -19 60 0 10 12 41 15 161 15 93 0 149 4
149 10 0 6 -56 10 -149 10 -120 0 -151 3 -161 15 -16 19 -44 19 -60 0z m46
-16 c10 -17 -13 -36 -27 -22 -12 12 -4 33 11 33 5 0 12 -5 16 -11z"/>
</g>
</svg>
